<?xml version="1.0" encoding="UTF-8" standalone="no"?>
<!-- Created with Inkscape (http://www.inkscape.org/) -->

<svg
   xmlns:dc="http://purl.org/dc/elements/1.1/"
   xmlns:cc="http://creativecommons.org/ns#"
   xmlns:rdf="http://www.w3.org/1999/02/22-rdf-syntax-ns#"
   xmlns:svg="http://www.w3.org/2000/svg"
   xmlns="http://www.w3.org/2000/svg"
   xmlns:sodipodi="http://sodipodi.sourceforge.net/DTD/sodipodi-0.dtd"
   xmlns:inkscape="http://www.inkscape.org/namespaces/inkscape"
   width="32"
   height="32"
   viewBox="0 0 32 32.000001"
   id="svg2"
   version="1.1"
   inkscape:version="0.91 r13725"
   sodipodi:docname="goat.svg">
  <defs
     id="defs4" />
  <sodipodi:namedview
     id="base"
     pagecolor="#ffffff"
     bordercolor="#666666"
     borderopacity="1.0"
     inkscape:pageopacity="0.0"
     inkscape:pageshadow="2"
     inkscape:zoom="1"
     inkscape:cx="16.30361"
     inkscape:cy="10.826058"
     inkscape:document-units="px"
     inkscape:current-layer="layer3"
     showgrid="true"
     units="px"
     inkscape:window-width="1600"
     inkscape:window-height="848"
     inkscape:window-x="-8"
     inkscape:window-y="22"
     inkscape:window-maximized="1"
     inkscape:snap-global="false"
     inkscape:snap-bbox="true"
     inkscape:snap-bbox-midpoints="true">
    <inkscape:grid
       type="xygrid"
       id="grid3338"
       empspacing="8" />
  </sodipodi:namedview>
  <metadata
     id="metadata7">
    <rdf:RDF>
      <cc:Work
         rdf:about="">
        <dc:format>image/svg+xml</dc:format>
        <dc:type
           rdf:resource="http://purl.org/dc/dcmitype/StillImage" />
        <dc:title></dc:title>
      </cc:Work>
    </rdf:RDF>
  </metadata>
  <g
     inkscape:groupmode="layer"
     id="layer3"
     inkscape:label="Layer 2">
    <path
       style="opacity:1"
       d="M 5.4422409,4.1981261 C 3.2019113,4.3089136 0.57103711,5.124979 0.57103711,5.124979 c 0,0 4.86220219,0.5541836 6.57159539,2.0906459 C 7.7611687,7.7715866 8.2131718,8.9963622 8.4899372,9.9009435 8.0393404,10.563298 7.6552988,11.284743 7.3470511,12.056632 a 2.197418,3.7867118 0 0 0 -1.305492,-0.745664 2.197418,3.7867118 0 0 0 -2.1975005,3.788715 2.197418,3.7867118 0 0 0 2.1975005,3.786391 2.197418,3.7867118 0 0 0 0.652746,-0.176544 c 0.05944,0.337072 0.1113964,0.678516 0.1974499,1.00351 0.07981,0.376153 0.3858688,0.692683 0.8548417,0.961697 a 9.5147593,6.101381 0 0 0 -0.9105922,1.396086 c 3.0794983,1.242122 7.0821295,2.605953 9.8237115,2.557557 2.396137,-0.0423 5.802365,-1.287069 8.543769,-2.478577 a 9.5147593,6.101381 0 0 0 -0.954728,-1.486681 c 0.387839,-0.177439 0.672378,-0.368876 0.752632,-0.573767 0.133235,-0.44348 0.235652,-0.900912 0.318244,-1.36821 a 2.197418,3.7867118 0 0 0 0.638808,0.164929 2.197418,3.7867118 0 0 0 2.197501,-3.786391 2.197418,3.7867118 0 0 0 -2.197501,-3.788715 2.197418,3.7867118 0 0 0 -1.305492,0.745664 c -0.308248,-0.771889 -0.69229,-1.493334 -1.142887,-2.1556885 0.276766,-0.9045813 0.728769,-2.1293569 1.347306,-2.6853186 1.709394,-1.5364623 6.571595,-2.0906459 6.571595,-2.0906459 0,0 -4.676381,-1.4511852 -6.868931,-0.7456634 C 23.333455,4.7740057 21.880216,6.3106191 21.005934,7.3294488 19.550309,6.2967263 17.839575,5.689454 16,5.689454 c -1.839575,0 -3.550309,0.6072723 -5.005934,1.6399948 C 10.119784,6.3106191 8.6665442,4.7740057 7.4399687,4.3793156 6.8918311,4.2029357 6.1890173,4.1611981 5.4422409,4.1981261 Z m 6.7667221,7.2847399 c 1.555112,4.57e-4 2.815549,1.629043 2.815403,3.637723 7.4e-5,1.007052 -0.317383,1.917435 -0.829289,2.57614 a 9.5147593,6.101381 0 0 0 -1.012803,0.162605 1.098709,1.8933559 0 0 0 0.199774,-1.087135 1.098709,1.8933559 0 0 0 -1.098751,-1.893196 1.098709,1.8933559 0 0 0 -1.09875,1.893196 1.098709,1.8933559 0 0 0 0.434389,1.505265 9.5147593,6.101381 0 0 0 -0.515693,0.188158 C 10.097256,17.910675 9.3911278,16.622983 9.3912372,15.120589 9.3910897,13.110738 10.652945,11.481665 12.208963,11.482866 Z m 7.584397,0 c 1.555112,4.57e-4 2.81555,1.629043 2.815403,3.637723 1.09e-4,1.50014 -0.703626,2.786432 -1.707361,3.34271 a 9.5147593,6.101381 0 0 0 -0.520338,-0.183513 1.098709,1.8933559 0 0 0 0.434389,-1.507587 1.098709,1.8933559 0 0 0 -1.09875,-1.893196 1.098709,1.8933559 0 0 0 -1.098751,1.893196 1.098709,1.8933559 0 0 0 0.202096,1.091781 9.5147593,6.101381 0 0 0 -1.015125,-0.164928 c -0.512369,-0.658763 -0.829362,-1.570831 -0.829289,-2.578463 -1.46e-4,-2.009851 1.261707,-3.638924 2.817726,-3.637723 z M 6.5897728,24.537786 A 9.5147593,6.101381 0 0 0 16,29.787628 9.5147593,6.101381 0 0 0 25.377706,24.677161 c -2.830788,1.208319 -6.248775,2.417267 -8.673856,2.459994 -2.817107,0.04963 -6.9026265,-1.317417 -10.1140772,-2.599369 z"
       id="path5614"
       inkscape:connector-curvature="0" />
  </g>
</svg>
