<?xml version="1.0" encoding="UTF-8" standalone="no"?>
<!-- Created with Inkscape (http://www.inkscape.org/) -->

<svg
   xmlns:dc="http://purl.org/dc/elements/1.1/"
   xmlns:cc="http://creativecommons.org/ns#"
   xmlns:rdf="http://www.w3.org/1999/02/22-rdf-syntax-ns#"
   xmlns:svg="http://www.w3.org/2000/svg"
   xmlns="http://www.w3.org/2000/svg"
   xmlns:sodipodi="http://sodipodi.sourceforge.net/DTD/sodipodi-0.dtd"
   xmlns:inkscape="http://www.inkscape.org/namespaces/inkscape"
   width="32"
   height="32"
   viewBox="0 0 32 32.000001"
   id="svg2"
   version="1.1"
   inkscape:version="0.91 r13725"
   sodipodi:docname="goat.svg">
  <defs
     id="defs4" />
  <sodipodi:namedview
     id="base"
     pagecolor="#ffffff"
     bordercolor="#666666"
     borderopacity="1.0"
     inkscape:pageopacity="0.0"
     inkscape:pageshadow="2"
     inkscape:zoom="7.9643545"
     inkscape:cx="30.491828"
     inkscape:cy="10.826058"
     inkscape:document-units="px"
     inkscape:current-layer="layer3"
     showgrid="true"
     units="px"
     inkscape:window-width="1600"
     inkscape:window-height="848"
     inkscape:window-x="-8"
     inkscape:window-y="22"
     inkscape:window-maximized="1"
     inkscape:snap-global="false"
     inkscape:snap-bbox="true"
     inkscape:snap-bbox-midpoints="true">
    <inkscape:grid
       type="xygrid"
       id="grid3338"
       empspacing="8" />
  </sodipodi:namedview>
  <metadata
     id="metadata7">
    <rdf:RDF>
      <cc:Work
         rdf:about="">
        <dc:format>image/svg+xml</dc:format>
        <dc:type
           rdf:resource="http://purl.org/dc/dcmitype/StillImage" />
        <dc:title></dc:title>
      </cc:Work>
    </rdf:RDF>
  </metadata>
  <g
     inkscape:groupmode="layer"
     id="layer2"
     inkscape:label="trace"
     style="display:none"
     sodipodi:insensitive="true">
    <g
       id="g5597"
       transform="matrix(2.7439039,0,0,2.7439039,-243.44202,-16.431273)">
      <path
         id="path3527"
         d="m 96.985418,12.610806 c 0.0191,0.1381 0.0465,0.6064 0.2051,0.6827 0.5137,0.247 0.6938,-0.9131 0.7508,-1.1925 0.0568,-0.278 -0.0219,-0.9322 -0.4438,-0.775 -0.0139,0.0052 -0.0238,0.0115 -0.0311,0.0187 -0.184,-0.0794 -0.3953,-0.059 -0.4625,0.166 -0.0996,0.3336 -0.0656,0.7626 -0.0185,1.1001 z"
         inkscape:connector-curvature="0"
         style="fill:#d8b78b" />
      <path
         id="path3529"
         d="m 92.193118,11.510706 c -0.0671,-0.225 -0.2785,-0.2454 -0.4626,-0.166 -0.007,-0.0071 -0.017,-0.0135 -0.0309,-0.0187 -0.4219,-0.1572 -0.5007,0.497 -0.4439,0.775 0.057,0.2794 0.2373,1.4395 0.751,1.1925 0.1586,-0.0763 0.1858,-0.5446 0.2051,-0.6827 0.0468,-0.3375 0.0808,-0.7665 -0.0187,-1.1001 z"
         inkscape:connector-curvature="0"
         style="fill:#d8b78b" />
      <path
         id="path3531"
         d="m 97.457118,12.001306 c 0,-1.5276 -1.2766,-2.7659997 -2.8514,-2.7659997 -1.5746,0 -2.8512,1.1221997 -2.8512,2.7659997 0,3.0696 1.2766,2.7659 2.8512,2.7659 1.5748,10e-5 2.8514,0.3038 2.8514,-2.7659 z"
         stroke-miterlimit="10"
         inkscape:connector-curvature="0"
         style="fill:#7f512e;stroke:#000000;stroke-width:0.1;stroke-miterlimit:10" />
      <path
         id="path3533"
         d="m 92.257518,12.954106 c 0,1.4198 1.0559,2.5708 2.3583,2.5708 1.3022,0 2.3581,-1.151 2.3581,-2.5708 0,-1.4199 -0.0125,-3.2149997 -2.3684,-2.6561 -2.6684,-0.5589997 -2.348,1.2361 -2.348,2.6561 z"
         stroke-miterlimit="10"
         inkscape:connector-curvature="0"
         style="fill:#d8b78b;stroke:#000000;stroke-width:0.12015001;stroke-miterlimit:10" />
      <ellipse
         id="ellipse3535"
         ry="0.85340005"
         rx="0.66710001"
         cy="12.188006"
         cx="93.461418"
         stroke-miterlimit="10"
         style="fill:#ffffff;stroke:#000000;stroke-width:0.1;stroke-miterlimit:10" />
      <ellipse
         id="ellipse3537"
         ry="0.85340005"
         rx="0.66710001"
         cy="12.188006"
         cx="95.761513"
         stroke-miterlimit="10"
         style="fill:#ffffff;stroke:#000000;stroke-width:0.1;stroke-miterlimit:10" />
      <ellipse
         id="ellipse3539"
         ry="0.42069998"
         rx="0.2692"
         cy="12.484107"
         cx="93.505219" />
      <ellipse
         id="ellipse3541"
         ry="0.42069998"
         rx="0.2692"
         cy="12.484107"
         cx="95.705215" />
      <ellipse
         id="ellipse3543"
         ry="1.7531999"
         rx="2.9221001"
         cy="14.417006"
         cx="94.605812"
         stroke-miterlimit="10"
         style="fill:#d8b78b;stroke:#000000;stroke-width:0.1;stroke-miterlimit:10" />
      <path
         id="path3545"
         d="m 91.845718,13.240306 c -4e-4,10e-5 -0.0471,0.0108 -0.1129,-0.0295 -0.1024,-0.0627 -0.2443,-0.2412 -0.3398,-0.7396 -0.0561,-0.2081 -0.0852,-0.3766 -0.0955,-0.5129 -0.0021,-0.0273 -0.0033,-0.0533 -0.004,-0.078 -0.0062,-0.2478 0.0569,-0.3732 0.1263,-0.4365 0.1105,-0.1008 0.2723,-0.0776 0.3473,-0.0592 0.025,0.0061 0.0404,0.0117 0.041,0.0119 l 0.0351,-0.0937 c -0.0121,-0.0045 -0.2972,-0.1087 -0.4901,0.0665 -0.1682,0.1527 -0.2035,0.463 -0.1064,0.9212 0.0138,0.0652 0.0303,0.1334 0.0494,0.2046 0.0814,0.4251 0.2109,0.6946 0.3847,0.801 0.0606,0.0371 0.1134,0.0454 0.1485,0.0454 0.0248,0 0.0409,-0.0042 0.0445,-0.0053 l -0.0281,-0.0959 z"
         inkscape:connector-curvature="0" />
      <path
         id="path3547"
         d="m 97.849618,11.369406 c -0.1928,-0.1751 -0.4779,-0.071 -0.49,-0.0665 l 0.035,0.0937 c 0.0023,-10e-4 0.2412,-0.087 0.3883,0.0473 0.007,0.0063 0.0139,0.0133 0.0207,0.0209 0.0943,0.1068 0.1639,0.3474 0.0361,0.8886 -0.009,0.0378 -0.0189,0.0771 -0.0299,0.118 l 0,0 c -4e-4,0.0013 -6e-4,0.0023 -0.001,0.0036 -0.0934,0.4881 -0.233,0.6679 -0.3338,0.7327 -0.0684,0.044 -0.1172,0.033 -0.1182,0.0327 l -0.0279,0.096 c 0.0037,0.0011 0.0197,0.0053 0.0447,0.0053 0.035,0 0.0879,-0.0083 0.1484,-0.0454 0.174,-0.1065 0.3035,-0.3766 0.3842,-0.7989 0.1544,-0.5743 0.1354,-0.9537 -0.0566,-1.128 z"
         inkscape:connector-curvature="0" />
      <path
         id="path3549"
         d="m 92.757818,11.327806 c 0.0026,0.0563 0.0535,-0.0449 0.0884,-0.0771 0.0592,-0.0546 0.1415,-0.0988 0.2243,-0.1382 0.209,-0.0992 0.4617,-0.1367 0.6983,-0.1417 0.0487,-10e-4 0.0591,-0.3056 -0.0484,-0.3033 -0.5229,0.0108 -1.0972,0.2332 -1.0802,0.5964 0.0023,0.0512 0.0047,0.1464 0.0678,0.1805 0.0472,0.0257 0.0502,-0.1102 0.0498,-0.1166 l 0,0 z"
         inkscape:connector-curvature="0" />
      <path
         id="path3551"
         d="m 96.486218,11.327806 c -0.0026,0.0563 -0.0535,-0.0449 -0.0884,-0.0771 -0.0592,-0.0546 -0.1415,-0.0988 -0.2243,-0.1382 -0.209,-0.0992 -0.4617,-0.1367 -0.6983,-0.1417 -0.0487,-10e-4 -0.0591,-0.3056 0.0484,-0.3033 0.5229,0.0108 1.0972,0.2332 1.0802,0.5964 -0.0023,0.0512 -0.0047,0.1464 -0.0678,0.1805 -0.0472,0.0257 -0.0502,-0.1102 -0.0498,-0.1166 l 0,0 z"
         inkscape:connector-curvature="0" />
      <path
         id="path3553"
         d="m 91.683718,14.117006 c 2.9221,1.7532 5.8442,0 5.8442,0"
         stroke-miterlimit="10"
         inkscape:connector-curvature="0"
         style="fill:none;stroke:#000000;stroke-width:0.1;stroke-miterlimit:10" />
    </g>
  </g>
  <g
     inkscape:label="Layer 1"
     inkscape:groupmode="layer"
     id="layer1"
     transform="translate(0,-1020.3622)"
     style="display:inline"
     sodipodi:insensitive="true">
    <path
       inkscape:connector-curvature="0"
       id="path4206"
       d="m 15.027224,1054.0103 c -0.08813,-0.088 -0.160233,-0.192 -0.160233,-0.2307 0,-0.1606 -0.248866,-0.2453 -0.684939,-0.2331 -0.40824,0.011 -0.430029,0.01 -0.86089,-0.2166 -0.243127,-0.1255 -0.47036,-0.2516 -0.504963,-0.28 -0.0346,-0.028 -0.0629,-0.1513 -0.0629,-0.2732 0,-0.266 -0.04944,-0.3068 -0.247653,-0.2043 -0.08248,0.043 -0.250981,0.078 -0.374453,0.078 -0.185345,0 -0.245666,-0.025 -0.345905,-0.1442 -0.06678,-0.079 -0.150924,-0.2156 -0.186988,-0.3026 -0.06926,-0.1673 -0.120482,-0.1887 -0.530927,-0.2226 -0.379378,-0.031 -0.832292,-0.3224 -1.054745,-0.6781 -0.2294255,-0.3667 -0.3123255,-0.7311 -0.2356225,-1.0358 0.09737,-0.3867 0.08312,-0.4294 -0.181671,-0.5446 -0.333043,-0.1449 -0.41519,-0.2297 -0.41519,-0.4281 0,-0.3635 -0.265031,-0.6963 -0.336583,-0.4227 -0.0221,0.084 -0.04475,0.09 -0.184011,0.043 -0.08735,-0.029 -0.218922,-0.096 -0.292392,-0.1467 -0.07347,-0.051 -0.184236,-0.093 -0.246143,-0.093 -0.124024,0 -0.123112,-0.067 -0.01692,1.2456 0.03653,0.4516 0.0096,0.4935 -0.184177,0.2872 -0.09908,-0.1055 -0.118279,-0.1739 -0.108957,-0.3882 0.01101,-0.253 -0.02595,-0.4244 -0.254826,-1.1823 -0.08678,-0.2874 -0.13063,-0.3649 -0.206452,-0.3649 -0.0872,0 -0.09338,0.027 -0.06561,0.2894 0.01686,0.1591 0.04627,0.3665 0.06535,0.4608 0.0244,0.1205 0.01803,0.1611 -0.02145,0.1367 -0.04895,-0.03 -0.09669,-0.1685 -0.254182,-0.7359 -0.04497,-0.162 -0.17032,-0.1623 -0.20852,0 -0.01627,0.069 -0.04211,0.1029 -0.05742,0.075 -0.04342,-0.078 -0.140757,-0.4864 -0.155693,-0.6537 -0.01164,-0.1304 -0.03163,-0.1492 -0.146575,-0.1374 -0.193779,0.02 -0.259621,-0.1928 -0.292406,-0.9446 -0.01647,-0.3776 -0.04755,-0.6254 -0.07776,-0.6197 -0.02768,0.01 -0.09863,0.2158 -0.157658,0.468 -0.05903,0.2522 -0.121311,0.4726 -0.138397,0.4897 -0.07088,0.071 -0.07796,-0.044 -0.03191,-0.5179 0.06865,-0.7061 0.06526,-0.8267 -0.0233,-0.8267 -0.04096,0 -0.119896,0.089 -0.175422,0.198 -0.120559,0.2362 -0.227892,0.3269 -0.152567,0.1287 0.06083,-0.1599 0.06579,-0.377 0.0086,-0.377 -0.02285,0 -0.09474,0.056 -0.159751,0.1258 -0.157545,0.1677 -0.285506,0.174 -0.177209,0.01 0.09522,-0.1453 0.05198,-0.8827 -0.05415,-0.9234 -0.100454,-0.039 -0.02754,-0.492 0.138945,-0.8642 0.19239,-0.43 0.253641,-1.0974 0.11357,-1.2374 -0.06436,-0.064 -0.09839,-0.187 -0.111118,-0.4003 -0.01879,-0.3149 -0.01977,-0.3114 0.390733,-1.4013 0.108528,-0.2882 0.121486,-0.567 0.02635,-0.567 -0.02768,0 -0.173981,0.2915 -0.325114,0.6477 -0.151134,0.3563 -0.284488,0.6186 -0.296341,0.583 -0.01185,-0.035 0.01362,-0.1345 0.0566,-0.2199 0.102925,-0.2044 0.3197,-0.8592 0.365571,-1.1042 0.03401,-0.1816 0.03003,-0.1906 -0.06206,-0.1413 -0.05412,0.029 -0.125932,0.1446 -0.159594,0.2569 -0.03366,0.1124 -0.08294,0.2043 -0.109507,0.2043 -0.06283,0 -0.07344,0.045 0.127836,-0.5465 0.09688,-0.2849 0.176141,-0.6094 0.176141,-0.7212 0,-0.311 0.190327,-1.0298 0.383437,-1.4479 0.09538,-0.2065 0.191481,-0.3877 0.213563,-0.4026 0.08307,-0.056 0.459847,-0.8612 0.459847,-0.9826 0,-0.1244 -0.0068,-0.1266 -0.392035,-0.1266 -0.415447,0 -0.906236,-0.1029 -1.083651,-0.2271 -0.05875,-0.041 -0.154778,-0.075 -0.213397,-0.075 -0.05862,0 -0.2404147,-0.065 -0.4039925,-0.145 -0.1635766,-0.08 -0.374307,-0.1703 -0.4682888,-0.2012 -0.093981,-0.031 -0.2638318,-0.1313 -0.3774455,-0.223 -0.1136133,-0.092 -0.3179126,-0.2181 -0.453998,-0.281 -0.2861073,-0.1323 -0.7451961,-0.5866 -0.8326271,-0.8239 -0.032996,-0.09 -0.1194072,-0.2873 -0.1920214,-0.4394 -0.1096404,-0.2297 -0.139674,-0.3875 -0.1771378,-0.931 -0.032693,-0.4743 -0.079979,-0.7571 -0.1717558,-1.0271 -0.089018,-0.2618 -0.1193156,-0.4375 -0.1019796,-0.5912 l 0.024664,-0.2188 -0.2583622,0 c -0.1420992,0 -0.3374765,-0.023 -0.43417159,-0.051 -0.3518549,-0.1028 -0.8854566,-0.2002 -1.0971375,-0.2003 -0.518569,0 -0.91557341,-0.2189 -0.91557341,-0.5049 0,-0.1554 0.27422771,-0.4335 0.46643931,-0.4728 0.5652063,-0.1158 0.6802531,-0.1354 1.66005379,-0.2826 0.5173242,-0.078 0.7102037,-0.1346 1.1001084,-0.3243 0.1888356,-0.092 0.5535435,-0.2396 0.8104604,-0.3281 0.2569174,-0.089 0.7530021,-0.2931 1.1024105,-0.4543 0.3494081,-0.1613 0.7190788,-0.309 0.8214918,-0.3282 0.165844,-0.031 0.205151,-0.017 0.359514,0.133 0.158729,0.1539 0.185896,0.1633 0.322895,0.1115 0.154358,-0.058 0.328869,-0.039 0.441734,0.05 0.09943,0.078 -0.283252,0.2782 -0.477187,0.2497 -0.122101,-0.018 -0.157414,0 -0.179529,0.083 -0.01514,0.058 -0.0053,0.119 0.02177,0.1358 0.02711,0.016 0.0023,0.063 -0.05505,0.1035 -0.111131,0.078 -0.139361,0.2411 -0.05112,0.2957 0.05876,0.036 0.45003,-0.2029 0.45003,-0.2751 0,-0.076 0.456381,-0.3055 0.607383,-0.3055 0.215661,0 0.712027,0.4818 0.857173,0.8319 0.116373,0.2808 0.205188,0.3402 0.287837,0.1925 0.0725,-0.1296 0.249976,0.4815 0.287145,0.9887 0.01724,0.2352 0.06675,0.5809 0.110024,0.768 0.0617,0.2668 0.07287,0.522 0.05177,1.1826 -0.0277,0.8674 -0.133305,1.4893 -0.323784,1.9067 -0.136983,0.3001 -0.446867,0.6501 -0.708805,0.8004 -0.454198,0.2608 -0.69072,0.5786 -0.376106,0.5053 0.07612,-0.018 0.280108,-0.046 0.45331,-0.063 0.286762,-0.028 0.333385,-0.05 0.521585,-0.2441 0.695003,-0.7172 0.916908,-1.5998 0.917166,-3.648 1.07e-4,-0.9083 -0.01337,-1.0829 -0.112676,-1.4595 -0.201866,-0.7655 -0.412131,-1.3588 -0.48155,-1.3588 -0.0366,0 -0.176562,-0.098 -0.311032,-0.2187 -0.290215,-0.2596 -0.421938,-0.3349 -0.586444,-0.3349 -0.06716,0 -0.210186,-0.06 -0.317846,-0.1337 -0.404188,-0.276 -0.833029,-0.4426 -1.151942,-0.4477 -0.166076,0 -0.339435,-0.021 -0.385243,-0.042 -0.125589,-0.056 -0.7189628,0.1069 -1.200028,0.3306 -0.2352745,0.1094 -0.5636521,0.2447 -0.7297281,0.3008 -0.1660764,0.056 -0.4265135,0.1667 -0.57875,0.2463 -0.3384207,0.1768 -0.7482307,0.34 -1.0775495,0.4293 -0.1359426,0.037 -0.2658144,0.096 -0.2886042,0.1322 -0.025227,0.04 -0.043915,-0.033 -0.047777,-0.1863 -0.00957,-0.3796 0.00377,-0.4629 0.1138905,-0.7119 0.097261,-0.2199 0.1480741,-0.4677 0.2410409,-1.1753 0.093902,-0.7148 0.3938911,-1.6793 0.6063195,-1.9493 0.055218,-0.07 0.1003969,-0.1501 0.1003969,-0.1775 0,-0.066 0.2245591,-0.5922 0.4134583,-0.9683 0.1727611,-0.344 0.7451153,-0.9196 1.0768569,-1.083 0.2153292,-0.106 1.1769668,-0.8825 1.1769668,-0.9503 0,-0.021 0.07959,-0.1408 0.176862,-0.2657 0.252622,-0.3243 0.733384,-0.5519 1.685204,-0.798 0.232792,-0.06 1.171385,-0.161 1.466899,-0.1577 0.12865,0 0.406548,0.061 0.617553,0.1316 0.211004,0.071 0.411475,0.129 0.445492,0.1293 0.111159,6e-4 0.8554675,0.3736 1.4097975,0.7059 0.298502,0.1789 0.604233,0.3613 0.679402,0.4054 0.208786,0.1225 0.804072,0.5818 1.300671,1.0034 0.595877,0.506 0.793885,0.6526 0.881326,0.6526 0.115211,0 0.430684,-0.3544 0.543952,-0.611 0.145352,-0.3294 0.288724,-0.3591 0.423517,-0.088 0.06968,0.1403 0.283565,0.1955 0.283565,0.073 0,-0.1211 0.102623,-0.095 0.388244,0.097 0.248023,0.1671 0.365241,0.3644 0.366363,0.6168 6.74e-4,0.1452 0.332598,0.063 0.682046,-0.1697 0.192457,-0.1279 0.451834,-0.2783 0.57639,-0.3343 0.124557,-0.056 0.278686,-0.1424 0.342508,-0.1921 0.114835,-0.089 0.2762,-0.1704 0.816565,-0.4102 0.153105,-0.068 0.393601,-0.2064 0.534439,-0.3075 0.140833,-0.1012 0.283828,-0.184 0.317771,-0.184 0.03394,0 0.125448,-0.045 0.203344,-0.1009 0.137703,-0.098 1.002013,-0.4527 1.10325,-0.4527 0.02776,0 0.154935,-0.066 0.28261,-0.1472 0.274821,-0.1743 0.376342,-0.1937 1.331469,-0.2542 0.652527,-0.041 0.764335,-0.036 1.056848,0.049 0.179913,0.052 0.516027,0.1319 0.746915,0.1769 0.230888,0.045 0.49808,0.1258 0.593762,0.1795 0.211133,0.1186 1.079565,0.9908 1.298998,1.3046 0.337391,0.4825 0.530783,0.8987 0.532763,1.1466 0.0013,0.1623 0.04819,0.3249 0.148268,0.5142 0.350973,0.6636 0.365917,0.7104 0.362342,1.1323 -0.0038,0.4511 0.04399,0.6798 0.225295,1.078 0.165397,0.3632 0.277011,0.8129 0.258555,1.0416 -0.01343,0.1666 0,0.1901 0.126897,0.225 0.07804,0.022 0.349803,0.015 0.603913,-0.015 0.784459,-0.093 0.822374,-0.083 0.871449,0.2194 0.02257,0.1391 0.0023,0.2056 -0.09975,0.3268 -0.177744,0.2112 -0.584427,0.4136 -1.089733,0.5422 l -0.427774,0.1088 0.0025,0.2247 c 0.0013,0.1236 0.03419,0.3662 0.07298,0.5392 0.05874,0.262 0.0597,0.3671 0.0057,0.6291 -0.09596,0.4658 -0.338825,1.195 -0.527273,1.5831 -0.09127,0.188 -0.196854,0.4211 -0.234629,0.518 -0.06613,0.1696 -0.150286,0.2874 -0.569016,0.7969 -0.482281,0.5869 -0.654721,0.7607 -1.081756,1.0904 -0.257867,0.199 -0.457497,0.3905 -0.458973,0.4403 -0.0014,0.048 0.01437,0.089 0.03514,0.09 0.02076,0 0.08074,0.034 0.133284,0.074 0.07767,0.059 0.08392,0.086 0.03342,0.1471 -0.09253,0.1115 -0.01568,0.1907 0.149787,0.1544 0.133065,-0.029 0.147172,-0.017 0.196795,0.167 0.06217,0.2309 0.317068,0.4841 0.819534,0.8139 0.34728,0.2279 0.364806,0.3005 0.07301,0.3021 -0.07794,0 -0.185511,0.024 -0.239047,0.053 -0.226561,0.1211 -0.04366,0.3839 0.470543,0.6758 0.199247,0.1131 0.369562,0.2435 0.378473,0.2898 0.01026,0.053 -0.05781,0.1308 -0.185839,0.2117 -0.214531,0.1354 -0.269168,0.2768 -0.244362,0.6323 0.01187,0.1701 0.007,0.1752 -0.151294,0.1597 -0.18592,-0.018 -0.207763,0.046 -0.09183,0.2693 0.05519,0.1064 0.05848,0.1595 0.01426,0.2303 -0.04338,0.07 -0.04225,0.145 0.0045,0.3078 0.200703,0.6979 0.270269,1.0187 0.308704,1.4237 0.02365,0.2491 0.03272,0.4699 0.02018,0.4906 -0.01254,0.021 -0.06999,0.038 -0.12767,0.038 -0.09984,0 -0.103433,0.018 -0.07493,0.39 0.01647,0.2146 0.05445,0.5929 0.0844,0.8408 0.02995,0.2479 0.04143,0.51 0.02552,0.5825 -0.05886,0.268 -0.135561,1.3529 -0.142991,2.0226 -0.0075,0.6797 -0.0098,0.6927 -0.14453,0.8277 -0.156781,0.1572 -0.255942,0.1224 -0.110256,-0.039 0.08337,-0.092 0.09403,-0.1708 0.0802,-0.5908 -0.0088,-0.2665 -0.02685,-0.4954 -0.04016,-0.5087 -0.05749,-0.058 -0.198947,0.099 -0.29035,0.3221 -0.08341,0.2033 -0.09026,0.2732 -0.04386,0.4471 0.07019,0.2629 0.02032,0.3599 -0.324852,0.6315 -0.144225,0.1134 -0.286566,0.2517 -0.316305,0.3073 -0.06887,0.1287 -0.13219,0.1288 -0.165778,0 -0.03296,-0.126 -0.194031,-0.131 -0.304136,-0.01 -0.125818,0.139 -0.148756,0.3629 -0.06209,0.606 0.08436,0.2366 0.06303,0.3501 -0.0484,0.2577 -0.03739,-0.031 -0.131347,-0.049 -0.208809,-0.041 -0.121045,0.014 -0.145347,0.044 -0.172848,0.2147 -0.03573,0.2216 -0.194476,0.3819 -0.52287,0.528 -0.144789,0.064 -0.233669,0.1518 -0.316182,0.3107 -0.06314,0.1215 -0.261251,0.4319 -0.440261,0.6897 -0.179011,0.2578 -0.325474,0.4845 -0.325474,0.5038 0,0.058 -0.755874,0.8614 -0.864643,0.9196 -0.156249,0.084 -0.167925,0.014 -0.03252,-0.1926 0.153238,-0.2343 0.494554,-1.046 0.494554,-1.1761 0,-0.1567 -0.204659,-0.1122 -0.435053,0.095 -0.175297,0.1574 -0.233755,0.2635 -0.366251,0.6653 -0.333542,1.0115 -0.376524,1.1183 -0.505644,1.2565 -0.09998,0.107 -0.165563,0.1362 -0.264127,0.1173 -0.101303,-0.02 -0.150608,0.01 -0.21684,0.1058 -0.04715,0.072 -0.106197,0.1308 -0.131224,0.1308 -0.07194,0 0.0032,-0.2423 0.215552,-0.6955 0.107936,-0.2303 0.201363,-0.4666 0.207606,-0.5251 0.0217,-0.2032 -0.594626,-0.4486 -0.699685,-0.2787 -0.02067,0.033 -0.03595,0.1694 -0.03395,0.302 0.0022,0.1459 -0.0189,0.2429 -0.05346,0.2456 -0.0314,0.01 -0.162091,0 -0.29042,-0.01 -0.21479,-0.01 -0.25133,0.01 -0.459968,0.222 -0.185098,0.1877 -0.259591,0.2298 -0.406371,0.2298 -0.20679,0 -0.362546,0.1357 -0.411483,0.3585 -0.01734,0.079 -0.05244,0.1566 -0.07799,0.1724 -0.02555,0.016 -0.04646,0.095 -0.04646,0.1767 0,0.1123 0.02327,0.148 0.09648,0.148 0.05306,0 0.200268,0.045 0.327116,0.099 0.21618,0.093 0.230604,0.1109 0.230019,0.2894 -5.44e-4,0.1593 -0.02738,0.2078 -0.163561,0.2958 -0.396828,0.2565 -0.715098,0.2712 -1.344343,0.062 l -0.325861,-0.1081 -0.1774,0.2183 c -0.424913,0.5227 -0.523466,0.6081 -0.734455,0.6364 -0.180792,0.024 -0.22305,0.01 -0.36472,-0.1328 z m 0.51505,-0.3341 c 0.04378,-0.017 0.07961,-0.073 0.07961,-0.1257 0,-0.07 -0.0364,-0.096 -0.138401,-0.096 -0.07612,0 -0.18935,-0.014 -0.25163,-0.031 -0.0886,-0.024 -0.11323,-0.01 -0.11323,0.066 0,0.1837 0.200944,0.2722 0.423652,0.1867 z m 1.488739,-1.3326 0,-0.2058 -0.213887,0.035 c -0.249483,0.041 -0.3397,0.1017 -0.3397,0.2277 0,0.1009 0.08467,0.134 0.36486,0.1427 0.188254,0.01 0.188727,0.01 0.188727,-0.1999 z m -4.479021,-0.6709 c 0,-0.2371 -0.0444,-0.3312 -0.156363,-0.3312 -0.07676,0 -0.09527,0.037 -0.09527,0.1912 0,0.1954 0.06956,0.312 0.186204,0.312 0.04092,0 0.06543,-0.064 0.06543,-0.172 z m 0.754891,-0.6216 c 0,-0.021 -0.133226,-0.1119 -0.296057,-0.2014 -0.162831,-0.09 -0.389323,-0.2533 -0.50332,-0.3639 -0.205642,-0.1996 -0.359283,-0.2591 -0.356867,-0.1383 0.0017,0.084 0.374184,0.4753 0.593322,0.624 0.166787,0.1132 0.562922,0.1692 0.562922,0.08 z m -1.863668,-0.5526 c -0.0017,-0.091 -0.111216,-0.2642 -0.167508,-0.2642 -0.0566,0 -0.03446,0.2292 0.02819,0.2919 0.08579,0.086 0.141175,0.075 0.139313,-0.028 z m 2.893605,-0.1824 c 0.173165,-0.1731 0.199592,-0.4765 0.110948,-1.2736 -0.0767,-0.6897 -0.169343,-1.0735 -0.423018,-1.7523 -0.238248,-0.6375 -0.259071,-0.6794 -0.337853,-0.6794 -0.04293,0 -0.07765,0.017 -0.07714,0.038 0.0022,0.09 0.15086,0.8574 0.194579,1.0047 0.135845,0.4573 0.220178,1.3028 0.194024,1.9453 -0.01479,0.3635 -0.04297,0.7005 -0.06262,0.749 -0.05746,0.1416 0.252263,0.1174 0.401073,-0.031 z m 1.179278,-0.1196 c 0.191234,-0.1093 0.278477,-0.3087 0.235435,-0.5382 -0.0257,-0.1369 -0.01096,-0.1969 0.06775,-0.2756 0.185147,-0.1852 0.256956,-0.5732 0.233577,-1.2621 -0.01174,-0.346 -0.03668,-0.6687 -0.05541,-0.7171 -0.04927,-0.1275 -0.174265,-0.1089 -0.174265,0.026 0,0.2426 -0.434125,2.0388 -0.573234,2.3717 -0.04456,0.1066 -0.08101,0.259 -0.08101,0.3387 0,0.1732 0.111641,0.1915 0.34715,0.057 z m -4.339585,-0.5105 c -0.01706,-0.1632 -0.05182,-0.35 -0.07726,-0.4152 -0.02543,-0.065 -0.08347,-0.2997 -0.128953,-0.5211 -0.147632,-0.7188 -0.22606,-0.9048 -0.335245,-0.7957 -0.108967,0.109 0.267055,1.8902 0.419451,1.987 0.129441,0.082 0.152265,0.034 0.122006,-0.255 z m 0.792609,0.2661 c 0.106669,-0.041 0.103781,-0.058 -0.07781,-0.4455 -0.113793,-0.2432 -0.172649,-0.3212 -0.212378,-0.2814 -0.03973,0.04 -0.02182,0.1523 0.06463,0.4062 0.06577,0.1932 0.125523,0.3513 0.132775,0.3513 0.0072,0 0.049,-0.014 0.09278,-0.031 z m 2.988311,-0.3089 c 0.306026,-0.3245 0.379279,-0.5546 0.512317,-1.609 0.04258,-0.3374 0.03837,-0.4531 -0.02293,-0.629 -0.04131,-0.1186 -0.07537,-0.2836 -0.0757,-0.3666 -5.35e-4,-0.083 -0.03794,-0.3049 -0.08358,-0.4929 -0.06354,-0.2619 -0.101882,-0.3382 -0.16369,-0.3259 -0.05772,0.012 -0.07817,0.066 -0.07178,0.191 0.02843,0.5565 0.01316,1.5152 -0.02723,1.7098 -0.02585,0.1245 -0.08398,0.4125 -0.129184,0.6399 -0.0452,0.2273 -0.115431,0.5076 -0.156073,0.6228 -0.08817,0.2499 -0.09567,0.4484 -0.01693,0.4484 0.03133,0 0.136984,-0.085 0.234786,-0.1885 z m -1.449246,-0.993 c 0,-0.041 -0.06228,-0.1127 -0.138401,-0.1595 -0.265979,-0.1637 -0.606039,-0.5741 -0.716487,-0.8647 -0.05969,-0.157 -0.163513,-0.4274 -0.230727,-0.601 -0.06722,-0.1735 -0.122421,-0.3434 -0.122673,-0.3774 -9.19e-4,-0.1204 -0.226797,-0.5237 -0.282668,-0.5048 -0.04128,0.014 -0.03787,0.1178 0.01252,0.3821 0.08704,0.4563 0.08487,0.5077 -0.01212,0.2872 -0.09592,-0.218 -0.221682,-0.9159 -0.248431,-1.3786 -0.02157,-0.3731 -0.03504,-0.412 -0.123397,-0.3574 -0.074,0.046 -0.01969,0.9352 0.08295,1.3586 0.154027,0.6353 0.218096,0.7801 0.345277,0.7801 0.09178,0 0.131401,0.042 0.179016,0.1887 0.165537,0.5109 0.554328,1.1074 0.803537,1.2329 0.217447,0.1094 0.451603,0.1166 0.451603,0.014 z m -3.421952,-0.7435 c 2.15e-4,-0.057 -0.06359,-0.276 -0.3551255,-1.2204 -0.103898,-0.3366 -0.198041,-0.7142 -0.323042,-1.2959 -0.07138,-0.3322 -0.0991,-0.39 -0.186832,-0.39 -0.09569,0 -0.100671,0.021 -0.07004,0.2893 0.127056,1.1148 0.618165,2.68 0.840896,2.68 0.05165,0 0.09401,-0.028 0.09414,-0.063 z m 9.621385,-0.1559 c -0.04995,-0.1027 -0.105554,-0.6413 -0.108587,-1.0519 -9.8e-4,-0.1394 -0.02258,-0.1887 -0.08248,-0.1887 -0.0639,0 -0.07493,0.034 -0.05203,0.1636 0.01598,0.09 0.04352,0.366 0.06118,0.6136 0.01995,0.2796 0.06263,0.4967 0.112644,0.5731 0.09426,0.1438 0.149846,0.056 0.06927,-0.1097 z m -2.295047,-0.49 c 0.0023,-0.3437 0.02108,-0.7201 0.04181,-0.8366 0.03923,-0.2203 0.005,-0.4173 -0.07255,-0.4173 -0.09474,0 -0.1661,0.4533 -0.170309,1.082 -0.0045,0.6737 0.02509,0.8542 0.134042,0.8177 0.04548,-0.015 0.06402,-0.1939 0.067,-0.6458 z m -8.2641125,0.3671 c 0.01352,-0.021 -0.0051,-0.1068 -0.04143,-0.1888 -0.269023,-0.607 -0.524181,-1.7705 -0.559606,-2.5519 -0.03318,-0.7319 -0.05187,-0.843 -0.141763,-0.843 -0.123395,0 -0.198172,0.4222 -0.167538,0.9459 0.06726,1.1499 0.69884,2.98 0.91033,2.6378 z m 8.8882255,-0.7145 c 0.0863,-0.061 0.238463,-0.2993 0.394401,-0.6165 0.47365,-0.9635 0.474214,-0.9653 0.500754,-1.616 0.02276,-0.5579 0.0184,-0.5951 -0.06791,-0.5785 -0.07255,0.014 -0.127396,0.1547 -0.257175,0.6601 -0.09073,0.3532 -0.199839,0.7097 -0.242473,0.7922 -0.04264,0.082 -0.146318,0.3368 -0.2304,0.5652 -0.08408,0.2285 -0.208099,0.4733 -0.275593,0.544 -0.140381,0.1471 -0.164951,0.3495 -0.04241,0.3495 0.04416,0 0.143528,-0.045 0.220807,-0.1 z m -10.0973995,-0.5591 c -0.0043,-0.066 -0.0327,-0.2908 -0.06306,-0.4984 -0.129601,-0.8864 -0.154797,-1.1095 -0.181811,-1.6104 -0.01567,-0.2907 -0.0043,-0.6869 0.02529,-0.8807 0.08267,-0.5415 0.08261,-0.5492 -0.0045,-0.567 -0.09094,-0.018 -0.164968,0.1333 -0.244628,0.5017 -0.06603,0.3053 -0.06937,1.4437 -0.0053,1.8015 0.169781,0.948 0.207365,1.1166 0.280649,1.2583 0.09248,0.1788 0.205155,0.1759 0.193384,-0.01 z m 2.5693935,-0.1881 c 0.0143,-0.023 -0.04359,-0.2101 -0.128659,-0.4153 -0.320265,-0.7726 -0.6507955,-2.1089 -0.7083785,-2.8638 -0.0092,-0.1207 -0.04098,-0.181 -0.101474,-0.1924 -0.07931,-0.015 -0.08807,0.035 -0.08807,0.5074 0,0.7523 0.272275,1.9511 0.5251485,2.3121 0.04332,0.062 0.07877,0.1456 0.07877,0.186 0,0.1558 0.210431,0.508 0.303476,0.508 0.05126,0 0.104893,-0.019 0.119193,-0.042 z m 9.692876,-0.1341 c 0,-0.042 0.03539,-0.076 0.07865,-0.076 0.04811,0 0.07265,-0.035 0.06318,-0.091 -0.01844,-0.1088 0.222954,-0.4119 0.328046,-0.4119 0.09505,0 0.276769,-0.3078 0.371344,-0.6291 0.08387,-0.2848 0.221709,-0.4569 0.442091,-0.5519 0.376359,-0.1623 0.576504,-0.3711 0.810833,-0.8461 0.125936,-0.2552 0.271041,-0.6264 0.322462,-0.8248 0.08791,-0.3392 0.168699,-0.5223 0.400558,-0.9075 0.05333,-0.089 0.156846,-0.3532 0.230029,-0.5879 0.130747,-0.4193 0.140607,-0.6323 0.05273,-1.1382 -0.01202,-0.069 -0.02369,-0.1386 -0.02594,-0.1543 -0.0075,-0.052 -0.415654,-0.2487 -0.459855,-0.2214 -0.06702,0.042 -0.128523,0.5783 -0.145379,1.269 -0.0026,0.1085 -0.153743,0.1704 -0.153743,0.063 0,-0.067 -0.236787,-0.065 -0.278552,0.01 -0.01807,0.029 -0.05075,0.1708 -0.07262,0.3145 -0.13561,0.8916 -0.390134,1.7847 -0.66103,2.3198 -0.186521,0.3684 -0.234801,0.431 -0.37287,0.4835 -0.06686,0.026 -0.129822,0.1209 -0.170823,0.259 -0.03571,0.1203 -0.08263,0.2413 -0.104254,0.2691 -0.02162,0.027 -0.05468,0.1295 -0.07344,0.2264 -0.09043,0.4668 -0.266468,0.6366 -0.208724,0.2013 0.07031,-0.53 -0.147586,-0.2025 -0.371441,0.5584 -0.0603,0.2049 -0.121862,0.4123 -0.136801,0.4607 -0.01813,0.059 0,0.088 0.05419,0.088 0.04475,0 0.08136,-0.034 0.08136,-0.076 z m -1.155106,-0.4794 c 0.08548,-0.046 0.448629,-0.558 0.587777,-0.8291 0.02841,-0.055 0.125936,-0.3158 0.216722,-0.5788 0.149147,-0.432 0.167935,-0.5521 0.194926,-1.2463 0.03238,-0.833 0.02955,-0.8673 -0.07159,-0.8673 -0.07601,0 -0.103261,0.073 -0.149416,0.4026 -0.144322,1.0292 -0.340805,1.7556 -0.680602,2.5163 -0.291778,0.6531 -0.301253,0.7115 -0.09782,0.6026 z m -7.8791,-0.7662 c -0.01861,-0.09 -0.09127,-0.3901 -0.161469,-0.6668 -0.0702,-0.2768 -0.153489,-0.6601 -0.185088,-0.8517 -0.05379,-0.3263 -0.130717,-0.4534 -0.203287,-0.3359 -0.01722,0.028 0.0051,0.1932 0.04961,0.3674 0.04451,0.1743 0.09938,0.4302 0.121952,0.5686 0.139467,0.8553 0.208886,1.082 0.331382,1.082 0.06447,0 0.07392,-0.033 0.04691,-0.1636 z m -4.1009035,0.091 c 0,-0.012 -0.02265,-0.036 -0.05033,-0.053 -0.02768,-0.017 -0.05033,-0.01 -0.05033,0.022 0,0.029 0.02265,0.053 0.05033,0.053 0.02768,0 0.05033,-0.01 0.05033,-0.022 z m 0.0075,-0.2169 c 0.0041,-0.049 0.01163,-0.2353 0.01668,-0.4152 0.0141,-0.5019 0.456901,-2.2379 0.689085,-2.7016 0.06767,-0.1352 0.02125,-0.276 -0.07837,-0.2377 -0.04042,0.015 -0.108543,0.1113 -0.151394,0.213 -0.04285,0.1016 -0.111075,0.2414 -0.15161,0.3106 -0.157565,0.269 -0.376537,0.8455 -0.439677,1.1575 -0.07031,0.3475 -0.09296,1.5253 -0.03219,1.6734 0.01989,0.048 0.05952,0.088 0.08807,0.088 0.02855,0 0.05528,-0.04 0.0594,-0.088 z m 13.7497225,-0.6039 c 0.01693,-0.076 0.05187,-0.229 0.07764,-0.3397 0.04617,-0.1984 0.04564,-0.1996 -0.03707,-0.078 -0.121932,0.1785 -0.212111,0.5565 -0.132765,0.5565 0.03378,0 0.07527,-0.062 0.0922,-0.1384 z m -14.0838875,-2.013 c 0.01514,-0.076 0.06398,-0.263 0.10852,-0.4151 0.04454,-0.1523 0.09893,-0.3448 0.12086,-0.4278 0.104657,-0.3963 0.377088,-1.1735 0.458627,-1.3085 0.106892,-0.1769 0.118908,-0.3271 0.02617,-0.3271 -0.08608,0 -0.186207,0.1027 -0.186207,0.191 0,0.039 -0.04259,0.1303 -0.09464,0.2038 -0.05205,0.073 -0.146941,0.2864 -0.210865,0.4733 -0.06393,0.1869 -0.134571,0.3397 -0.156992,0.3397 -0.02242,0 -0.04076,0.058 -0.04076,0.1287 0,0.071 -0.02111,0.2236 -0.0469,0.3397 -0.118163,0.5316 -0.163441,0.8351 -0.132147,0.8857 0.05921,0.096 0.125855,0.06 0.154339,-0.083 z m 8.2504785,-0.049 c 0.534927,-0.1804 0.569884,-0.2013 0.916777,-0.5469 0.493582,-0.4918 0.838511,-1.2017 0.925657,-1.9049 0.05207,-0.4202 0.111978,-0.5821 0.330901,-0.894 0.09151,-0.1304 0.201567,-0.3213 0.244582,-0.4243 0.100223,-0.2399 0.595748,-1.0362 0.817832,-1.3143 0.200076,-0.2505 0.198733,-0.3827 -0.0041,-0.406 -0.239086,-0.028 -0.739034,0.5452 -1.289341,1.4769 -0.139603,0.2364 -0.253821,0.4549 -0.253821,0.4856 0,0.031 -0.05096,0.2271 -0.113229,0.4364 -0.108436,0.3645 -0.132893,0.3997 -0.57718,0.8302 -0.715843,0.6937 -0.728781,0.7003 -1.363979,0.6909 -0.293346,-0.01 -0.543608,-0.018 -0.556142,-0.031 -0.01253,-0.012 -0.0021,-0.1525 0.02314,-0.3109 0.03966,-0.2488 0.06951,-0.3039 0.218901,-0.4042 0.09514,-0.064 0.224913,-0.2031 0.288391,-0.3095 0.06348,-0.1065 0.173557,-0.2316 0.244615,-0.2782 0.161467,-0.1058 0.325264,-0.369 0.325511,-0.5231 0,-0.064 0.0654,-0.2115 0.145095,-0.3273 0.352991,-0.5131 0.574646,-1.1915 0.38928,-1.1915 -0.04587,0 -0.10331,0.051 -0.127633,0.1132 -0.350887,0.8984 -0.607906,1.2796 -1.176996,1.7457 -0.341547,0.2796 -0.409969,0.2965 -0.681408,0.1674 l -0.183744,-0.087 0.150366,-0.026 c 0.229739,-0.04 0.220441,-0.1772 -0.02034,-0.3 -0.246085,-0.1256 -0.291526,-0.2109 -0.523676,-0.9836 -0.216437,-0.7202 -0.401873,-1.2078 -0.459435,-1.2078 -0.0418,0 -0.05747,0.025 -0.18417,0.2948 -0.06195,0.1319 -0.05787,0.1517 0.04921,0.2384 0.14415,0.1167 0.244888,0.4402 0.306836,0.9854 0.05907,0.5198 0.14749,0.7835 0.388045,1.1572 0.103895,0.1614 0.191921,0.3161 0.19562,0.3438 0.0037,0.028 0.01017,0.066 0.01438,0.085 0.0042,0.019 0.06875,0.01 0.143409,-0.036 0.207376,-0.1076 0.288934,-0.013 0.164672,0.1917 -0.05292,0.087 -0.111055,0.2609 -0.129183,0.3864 -0.01812,0.1254 -0.05552,0.2564 -0.08309,0.291 -0.07959,0.1 -0.360684,0.073 -0.546635,-0.052 -0.09382,-0.063 -0.27327,-0.1744 -0.398782,-0.2474 -0.496862,-0.2891 -0.862962,-0.8313 -1.277724,-1.8927 -0.099,-0.2534 -0.18,-0.4774 -0.18,-0.4979 0,-0.1164 -0.175293,-0.4682 -0.233305,-0.4682 -0.03776,0 -0.06865,0.02 -0.06865,0.043 0,0.1145 0.110687,0.6197 0.199972,0.9127 0.05483,0.1799 0.189019,0.6921 0.298204,1.1381 0.22103,0.9029 0.522326,1.5879 0.818212,1.8601 0.30442,0.2801 0.567791,0.4591 0.772144,0.5248 0.110717,0.036 0.269243,0.1215 0.352283,0.1909 0.396639,0.3312 0.884021,0.3524 1.708542,0.074 z m -1.401733,-0.3702 c -0.364774,-0.1484 -1.010027,-0.6219 -1.134224,-0.8324 -0.05924,-0.1005 -0.09551,-0.1948 -0.0806,-0.2097 0.0149,-0.015 0.157366,0.039 0.316579,0.1196 0.243874,0.1235 0.356878,0.1483 0.717255,0.157 0.235274,0.01 0.549003,0.048 0.697179,0.094 0.511802,0.1597 1.07503,-0.01 1.673242,-0.5017 0.155036,-0.1277 0.296577,-0.2321 0.314534,-0.2321 0.01796,0 0.03266,0.053 0.03266,0.1189 0,0.2514 -0.818922,1.0721 -1.201599,1.2043 -0.496288,0.1714 -1.03369,0.2042 -1.335018,0.082 z m -4.7621935,-0.2363 c 0.151132,-0.2724 0.779242,-2.0633 0.975398,-2.781 0.121505,-0.4445 0.112479,-0.669 -0.01716,-0.4268 -0.104389,0.1951 -0.159865,0.1502 -0.07658,-0.062 0.112978,-0.2877 0.3780215,-1.3915 0.3780215,-1.5743 0,-0.242 -0.1178945,-0.1143 -0.2227185,0.2412 -0.04683,0.1589 -0.106819,0.3287 -0.133315,0.3774 -0.0265,0.049 -0.08166,0.1873 -0.122594,0.3079 -0.0661,0.1947 -0.192933,0.4313 -0.866672,1.6166 -0.274863,0.4835 -0.29639,0.5259 -0.459678,0.9058 -0.0119,0.028 0.04062,-0.011 0.116704,-0.086 0.07609,-0.075 0.180421,-0.15 0.231861,-0.1663 0.08527,-0.027 0.415237,-0.4682 0.682278,-0.9121 0.05862,-0.098 0.145031,-0.215 0.192035,-0.2611 0.08014,-0.079 0.08318,-0.074 0.04885,0.067 -0.03523,0.1453 -0.306599,0.845 -0.448926,1.1575 -0.234216,0.5143 -0.527604,1.5636 -0.527604,1.8869 0,0.3064 0.06573,0.3678 0.110869,0.1037 0.01946,-0.1139 0.08211,-0.2913 0.139235,-0.3942 z m 16.8917075,0.159 c -0.0661,-0.5624 -0.381608,-1.2957 -0.504592,-1.1727 -0.01404,0.014 0.0147,0.2552 0.06389,0.5358 0.06674,0.3809 0.125416,0.5623 0.231275,0.7151 0.196027,0.2828 0.249515,0.2628 0.209431,-0.078 z m -6.03419,-0.1865 c 0.24602,-0.2803 0.464647,-0.8745 0.512504,-1.3931 0.04284,-0.4643 0.03718,-0.6891 -0.01875,-0.7449 -0.04437,-0.044 -0.125323,0.095 -0.126253,0.2178 -0.0018,0.2384 -0.223012,0.8962 -0.485535,1.4439 -0.282872,0.5901 -0.321405,0.8022 -0.126795,0.6981 0.05197,-0.028 0.16215,-0.1276 0.244835,-0.2218 z m -9.565884,-0.4743 c -0.0067,-0.6785 -0.0662,-0.908 -0.1442885,-0.5562 -0.05723,0.2579 0.01302,1.2482 0.088541,1.2482 0.04713,0 0.06087,-0.1705 0.05574,-0.692 z m 6.909079,-0.01 c 0.208541,-0.683 0.265298,-1.4929 0.10462,-1.4929 -0.05783,0 -0.08875,0.1119 -0.132169,0.4781 -0.03117,0.2629 -0.0849,0.614 -0.119387,0.78 -0.116327,0.5602 -0.120439,0.6335 -0.03368,0.6002 0.04301,-0.016 0.124282,-0.1809 0.18061,-0.3654 z m -10.1685245,-1.5517 c 0.118269,-0.2414 0.26439,-0.5195 0.324714,-0.618 0.348972,-0.57 0.537451,-0.9011 0.537451,-0.944 0,-0.027 0.03083,-0.061 0.06851,-0.075 0.03768,-0.015 0.08085,-0.073 0.09594,-0.1312 0.02026,-0.077 0.0039,-0.1049 -0.06263,-0.1049 -0.08806,0 -0.155268,0.079 -0.647798,0.762 -0.428105,0.5937 -0.767402,1.3365 -0.695749,1.5232 0.05589,0.1457 0.163604,0.029 0.379564,-0.412 z m 16.8547495,-0.2038 c 0.117825,-0.2499 0.161033,-0.4114 0.15822,-0.5914 -0.0055,-0.3525 -0.102891,-0.6377 -0.241259,-0.7068 -0.0641,-0.032 -0.159385,-0.1285 -0.211756,-0.2146 -0.112108,-0.1843 -0.248023,-0.2082 -0.246939,-0.044 5.43e-4,0.062 0.03202,0.2491 0.07026,0.4153 0.03823,0.166 0.08558,0.551 0.105231,0.8555 0.01965,0.3044 0.04598,0.5705 0.05853,0.5913 0.06248,0.1034 0.160748,0.01 0.307716,-0.3059 z m -3.662692,-0.4422 c 0,-0.094 -0.02265,-0.1704 -0.05033,-0.1704 -0.02768,0 -0.05032,0.042 -0.05032,0.094 0,0.052 -0.0125,0.2044 -0.02776,0.3397 l -0.02776,0.2461 0.07809,-0.1694 c 0.04294,-0.093 0.07809,-0.246 0.07809,-0.3397 z m -14.2068745,-0.073 c 0.0744,-0.1693 0.0979,-0.2875 0.07141,-0.3592 -0.0348,-0.094 -0.05543,-0.075 -0.173806,0.1629 -0.07387,0.1482 -0.134317,0.3103 -0.134317,0.3602 0,0.1743 0.126663,0.086 0.236714,-0.1639 z m 2.583018,-0.1585 c 0.04071,-0.061 0.136135,-0.176 0.212056,-0.2551 0.303772,-0.3167 0.689035,-0.9903 0.863113,-1.5093 0.150082,-0.4475 0.166877,-0.6406 0.0557,-0.6406 -0.04152,0 -0.07549,0.034 -0.07549,0.076 0,0.1 -0.951558,2.0068 -1.012419,2.0292 -0.05364,0.02 -0.195406,0.2794 -0.195406,0.3579 0,0.088 0.07397,0.059 0.152449,-0.058 z m 4.1154945,-2.4519 c 0.01164,-0.2007 -5.9e-4,-0.2601 -0.05032,-0.2436 -0.0633,0.021 -0.146631,0.4696 -0.09653,0.5197 0.07267,0.073 0.133231,-0.041 0.14685,-0.2761 z m 3.387179,-0.1078 c 0.07358,-0.3766 0.08003,-0.7022 0.01565,-0.7894 -0.110851,-0.15 -0.179874,-0.01 -0.206414,0.4384 -0.01356,0.2259 -0.01141,0.4453 0.0048,0.4875 0.04772,0.1244 0.149603,0.05 0.185962,-0.1365 z m 7.41741,-0.2299 c 0.151262,-0.1512 0.242961,-0.3238 0.196333,-0.3695 -0.02611,-0.026 -0.247271,-0.01 -0.523321,0.055 -0.555954,0.1148 -0.675953,0.114 -1.685927,-0.012 -0.415191,-0.052 -0.760554,-0.094 -0.767474,-0.094 -0.0069,0 -0.01258,0.033 -0.01258,0.075 0,0.041 0.118893,0.1358 0.264208,0.2104 0.285643,0.1469 0.702402,0.1933 1.883634,0.2102 0.461733,0.01 0.577373,-0.01 0.645124,-0.074 z m -17.9038335,-0.104 c 0.011,-0.033 -0.0634,-0.096 -0.165349,-0.1382 -0.101946,-0.043 -0.363224,-0.2021 -0.580617,-0.3544 -0.2173937,-0.1523 -0.4099835,-0.277 -0.427978,-0.277 -0.017993,0 -0.1100967,-0.068 -0.2046717,-0.1509 -0.094575,-0.083 -0.1938133,-0.1511 -0.2205299,-0.1511 -0.2650324,0 0.6054436,0.7692 1.2095766,1.0687 0.193563,0.096 0.358509,0.097 0.389569,0.01 z m 3.807526,-0.107 c 0.03145,-0.051 -0.06829,-0.4093 -0.140345,-0.5043 -0.02843,-0.037 -0.09958,-0.086 -0.158106,-0.1086 -0.08518,-0.033 -0.119553,-0.1142 -0.172252,-0.4099 -0.08203,-0.4604 -0.0955,-0.4953 -0.191014,-0.4953 -0.06523,0 -0.07226,0.055 -0.04497,0.3482 0.04373,0.4706 0.131508,0.7177 0.281426,0.7923 0.06776,0.034 0.164548,0.142 0.215088,0.2405 0.0902,0.1758 0.158643,0.2205 0.210169,0.1371 z m 14.9182145,-0.1278 c 0.183327,-0.1353 0.360887,-0.3279 0.360887,-0.3915 0,-0.073 -0.131948,-0.047 -0.257428,0.051 -0.06601,0.052 -0.19928,0.1336 -0.296158,0.1826 -0.229176,0.1157 -0.226009,0.1116 -0.151988,0.2007 0.08726,0.1052 0.155724,0.097 0.344687,-0.043 z m -3.612565,-0.2104 c 0.05555,-0.067 0.01712,-0.1272 -0.265083,-0.4152 -0.522328,-0.5332 -0.594664,-0.6815 -0.652907,-1.3383 -0.07078,-0.7981 -0.02457,-1.8335 0.10129,-2.2699 0.0867,-0.3005 0.146899,-0.5927 0.29806,-1.4468 0.03587,-0.2027 -0.153539,-0.1927 -0.23856,0.013 -0.07918,0.1911 -0.150978,0.194 -0.150978,0.01 0,-0.176 -0.111522,-0.2908 -0.189918,-0.1955 -0.02876,0.035 -0.06886,0.1767 -0.0891,0.3152 -0.06559,0.4484 -0.283522,0.7673 -0.819443,1.1988 -0.111775,0.09 -0.227393,0.1348 -0.347859,0.1348 -0.229788,0 -0.593332,0.2107 -0.691714,0.401 -0.04136,0.08 -0.119059,0.1593 -0.172649,0.1764 -0.0777,0.024 -0.104458,0.096 -0.132126,0.3548 -0.04124,0.3851 -0.0088,0.519 0.103235,0.4261 0.04119,-0.034 0.0749,-0.09 0.0749,-0.1237 0,-0.034 0.04858,-0.1046 0.107958,-0.1573 0.05938,-0.053 0.1497,-0.1892 0.200719,-0.3032 0.112059,-0.2504 0.167437,-0.2988 0.395887,-0.346 0.09688,-0.02 0.251438,-0.082 0.343474,-0.138 0.189387,-0.1151 0.821864,-0.3395 0.872287,-0.3096 0.01821,0.011 -0.01167,0.1612 -0.0664,0.3341 -0.08246,0.2606 -0.100936,0.4739 -0.107888,1.2455 -0.0077,0.8599 5.83e-4,0.956 0.108887,1.2581 0.215524,0.6012 0.461304,0.9157 0.933542,1.1946 0.144472,0.085 0.306568,0.079 0.384384,-0.015 z m -14.3541355,-0.055 c -0.01825,-0.093 -0.902985,-0.4284 -1.07312,-0.4063 -0.207218,0.027 0.393989,0.3462 0.855544,0.4544 0.190437,0.045 0.233807,0.035 0.217576,-0.048 z m 5.8954025,-0.2564 c -9.19e-4,-0.048 -0.04546,-0.2126 -0.09901,-0.3648 -0.05705,-0.1622 -0.09805,-0.4135 -0.09901,-0.6069 -0.0016,-0.3253 -0.09695,-0.5727 -0.186252,-0.4834 -0.02303,0.023 -0.04157,0.2268 -0.04121,0.4528 5.9e-4,0.3687 0.108394,0.8094 0.25672,1.0494 0.04706,0.076 0.170416,0.042 0.168763,-0.047 z m 3.996788,-0.3927 c 0.104044,-0.3301 0.07298,-0.576 -0.07276,-0.576 -0.107888,0 -0.130455,0.074 -0.165273,0.541 -0.02036,0.2732 -0.01204,0.3145 0.06325,0.3145 0.06105,0 0.112741,-0.083 0.174781,-0.2795 z m -12.9028639,-0.3969 c 0,-0.04 -0.02419,-0.087 -0.053757,-0.1057 -0.029568,-0.018 -0.038533,-0.071 -0.019923,-0.1162 0.01861,-0.046 0.065281,-0.2302 0.1037176,-0.4101 0.038436,-0.18 0.1169179,-0.437 0.1744031,-0.5711 0.057486,-0.1342 0.090534,-0.2579 0.073441,-0.275 -0.1098054,-0.1098 -0.3764709,0.387 -0.4539887,0.8459 -0.047684,0.2822 0.015469,0.7047 0.1053409,0.7047 0.038922,0 0.070767,-0.033 0.070767,-0.072 z m 18.3512269,-0.092 c 0.229605,-0.2625 0.40459,-0.6265 0.334788,-0.6963 -0.03223,-0.033 -0.09476,-0.045 -0.138948,-0.028 -0.07996,0.031 -0.429675,0.7014 -0.429675,0.8241 0,0.108 0.08309,0.072 0.233835,-0.1 z m 2.733181,-0.1251 c -0.0037,-0.3897 -0.115301,-0.7395 -0.242134,-0.7584 -0.131652,-0.02 -0.133779,0.021 -0.02789,0.5337 0.0913,0.442 0.100679,0.4638 0.19972,0.4638 0.05328,0 0.07193,-0.063 0.0703,-0.2391 z m -17.4106045,-0.095 c 0,-0.018 -0.06803,-0.1027 -0.151171,-0.1887 -0.08314,-0.086 -0.22576,-0.2582 -0.316923,-0.3826 -0.291262,-0.3976 -0.480118,-0.2769 -0.205273,0.1311 0.176712,0.2623 0.421534,0.468 0.560133,0.4705 0.06228,0 0.113234,-0.012 0.113234,-0.03 z m 9.3314195,-0.2651 c 0.09541,-0.1055 0.176021,-0.5686 0.140773,-0.8087 -0.03204,-0.2183 -0.198668,-0.2101 -0.23289,0.012 -0.01389,0.09 -0.0483,0.3082 -0.07647,0.4849 -0.06635,0.4165 -0.01381,0.5138 0.168586,0.3122 z m 4.780897,0.053 c 0.08075,-0.018 0.156873,-0.062 0.16916,-0.099 0.01776,-0.053 -0.06123,-0.063 -0.3863,-0.046 -0.224742,0.012 -0.422031,0.035 -0.438409,0.051 -0.117669,0.1177 0.281112,0.1745 0.655549,0.093 z m 3.952656,-0.2709 c -0.0024,-0.307 -0.140419,-0.7353 -0.261513,-0.8116 -0.129189,-0.082 -0.140768,-0.027 -0.0632,0.2979 0.03937,0.1649 0.0724,0.3923 0.07339,0.5053 0.002,0.2297 0.02738,0.2726 0.161156,0.2726 0.07802,0 0.09194,-0.041 0.09017,-0.2642 z m -13.08047,-0.5094 c 0.0012,-0.059 0.03226,-0.2203 0.06898,-0.3587 0.06767,-0.2551 0.03653,-0.346 -0.100507,-0.2934 -0.07612,0.029 -0.200403,0.6752 -0.153448,0.7976 0.02679,0.07 0.04699,0.074 0.107861,0.024 0.04119,-0.034 0.07589,-0.1103 0.07711,-0.1692 z m -4.4309155,0.079 c 0,-0.068 -0.08997,-0.1195 -0.364864,-0.2074 -0.200675,-0.064 -0.427143,-0.1485 -0.503261,-0.1873 -0.120915,-0.062 -0.138396,-0.061 -0.138396,0.01 0,0.091 0.180836,0.2162 0.524861,0.3629 0.325679,0.1389 0.48166,0.1476 0.48166,0.027 z m 1.313012,-0.3824 c -0.03017,-0.1733 -0.05486,-0.4904 -0.05486,-0.7047 0,-0.344 -0.01031,-0.3875 -0.08807,-0.3725 -0.150987,0.03 -0.106007,1.0594 0.0641,1.4678 0.03584,0.086 0.04276,0.087 0.08633,0.01 0.03008,-0.054 0.02734,-0.1996 -0.0075,-0.3996 z m -6.1040548,0.3625 c 0.033214,-0.034 0.060391,-0.096 0.060391,-0.1393 0,-0.043 0.090587,-0.1886 0.2013044,-0.3226 0.2185881,-0.2645 0.2527604,-0.3836 0.1100679,-0.3836 -0.1799738,0 -0.5585488,0.551 -0.5618973,0.8178 -0.00128,0.1013 0.1015575,0.1163 0.1901335,0.028 z m 22.6467393,0 c 0.07302,-0.073 0.08057,-0.4245 0.01006,-0.468 -0.02768,-0.017 -0.05032,-0.097 -0.05032,-0.1774 0,-0.2058 -0.14647,-0.4891 -0.269469,-0.5213 -0.05697,-0.015 -0.113284,-0.018 -0.125136,-0.01 -0.03077,0.031 0.09129,0.3191 0.229492,0.542 0.09916,0.16 0.112601,0.2299 0.08468,0.4404 -0.03321,0.2503 0.0031,0.3074 0.120691,0.1898 z m -20.5219775,-0.1928 c 0.262394,-0.2809 0.371063,-0.5829 0.389017,-1.081 0.01522,-0.4222 0.008,-0.4621 -0.107565,-0.5897 -0.06814,-0.075 -0.258164,-0.2071 -0.422277,-0.2931 l -0.2983876,-0.1565 -0.4190302,0.061 -0.4190301,0.061 -0.1177403,-0.1455 c -0.064756,-0.08 -0.1365774,-0.1681 -0.1596014,-0.1958 -0.023025,-0.028 -0.019006,-0.087 0.00893,-0.1317 0.065903,-0.1057 0.011074,-0.2458 -0.096171,-0.2458 -0.070896,0 -0.078935,0.036 -0.051836,0.234 0.01764,0.1287 0.064794,0.2996 0.1047884,0.3798 0.069843,0.14 0.067355,0.148 -0.062977,0.2034 -0.161316,0.069 -0.36216,0.2378 -0.36216,0.3052 0,0.07 0.3109744,0.01 0.8303804,-0.1642 0.593728,-0.1972 0.8210326,-0.1987 1.0263624,-0.01 0.1478504,0.1381 0.1566134,0.1674 0.1620954,0.5411 0.0069,0.4704 -1.61e-4,0.5497 -0.06372,0.7169 -0.06814,0.1792 -0.1429003,0.046 -0.1074051,-0.1918 0.024066,-0.1611 0.01875,-0.1724 -0.049405,-0.105 -0.1193012,0.1179 -0.2543904,0.7312 -0.1882722,0.8548 0.077811,0.1454 0.2398427,0.1251 0.4040033,-0.051 z m 18.1770565,-0.1877 c 0.263408,-0.2808 0.40176,-0.6504 0.443825,-1.1857 0.02151,-0.2737 0.06126,-0.5199 0.08831,-0.5469 0.02706,-0.027 0.29472,-0.082 0.594792,-0.1209 0.635279,-0.083 0.700995,-0.1012 0.887725,-0.2392 0.195405,-0.1444 0.106107,-0.2091 -0.196366,-0.1421 -0.133843,0.029 -0.413205,0.079 -0.6208,0.1099 -0.602894,0.09 -0.6724,0.114 -0.703996,0.2479 -0.01815,0.077 -0.08286,0.1381 -0.178098,0.1687 -0.08228,0.026 -0.200752,0.094 -0.26328,0.1513 -0.136489,0.1242 -0.465061,1.1009 -0.465061,1.3825 0,0.3308 0.190735,0.4114 0.412948,0.1745 z m -12.140344,-0.075 c -7.97e-4,-0.09 -0.04325,-0.2881 -0.09439,-0.4404 -0.05113,-0.1522 -0.07937,-0.2994 -0.06275,-0.3271 0.05175,-0.086 0.0031,-0.24 -0.142625,-0.4511 -0.233633,-0.3385 -0.459333,-0.5315 -0.8814865,-0.7539 -0.364691,-0.1922 -0.404979,-0.2283 -0.427772,-0.3835 -0.02266,-0.1544 -0.04516,-0.175 -0.226467,-0.2071 -0.319084,-0.056 -0.377446,-0.049 -0.377446,0.048 0,0.1059 0.448663,0.552 0.713946,0.7099 0.127002,0.076 0.204323,0.1692 0.245128,0.297 0.08357,0.2616 0.118921,0.2864 0.301124,0.2109 0.149419,-0.062 0.1664905,-0.057 0.2941795,0.081 0.243267,0.2629 0.307688,0.3909 0.307688,0.6107 0,0.1183 -0.01402,0.2152 -0.03116,0.2152 -0.01714,0 -0.161644,-0.079 -0.321121,-0.1761 -0.1594785,-0.097 -0.3162775,-0.1761 -0.3484415,-0.1761 -0.03216,0 -0.165086,-0.1 -0.295381,-0.2217 -0.20005,-0.1871 -0.385607,-0.4842 -0.615839,-0.9862 -0.01904,-0.042 -0.06613,-0.076 -0.104629,-0.076 -0.05091,0 -0.06726,0.062 -0.05994,0.2265 0.01941,0.4367 0.06605,0.5517 0.363816,0.8977 0.262508,0.305 0.343371,0.3628 0.772882,0.5518 0.2638345,0.1162 0.5334065,0.2113 0.5990475,0.2113 0.08639,0 0.135083,0.042 0.176336,0.151 0.07891,0.209 0.217143,0.2009 0.215292,-0.012 z m 10.403952,0.029 c 0.02216,-0.058 -0.02406,-0.1323 -0.148209,-0.2391 -0.226099,-0.1943 -0.449998,-0.5502 -0.616786,-0.9802 -0.158391,-0.4083 -0.256461,-0.5491 -0.330858,-0.4747 -0.123574,0.1236 0.345073,1.2921 0.648468,1.6169 0.166895,0.1787 0.39344,0.2177 0.447385,0.077 z m -4.992482,-0.5902 c 0,-0.4491 -0.05324,-0.6343 -0.182301,-0.6343 -0.06208,0 -0.05528,0.9204 0.008,1.0869 0.09754,0.2566 0.17427,0.057 0.17427,-0.4526 z m -8.7553755,0.219 c 0.05514,-0.089 -0.06906,-0.185 -0.28458,-0.2194 -0.113205,-0.018 -0.298205,-0.078 -0.411111,-0.1321 -0.242444,-0.1172 -0.28703,-0.1221 -0.28703,-0.031 0,0.1108 0.15756,0.2192 0.478098,0.3289 0.342489,0.1172 0.458003,0.1296 0.504623,0.054 z m 4.5955905,-0.7831 c 0.136221,-0.3854 0.135867,-0.4334 -0.0031,-0.4135 -0.09056,0.014 -0.12972,0.08 -0.207746,0.3531 -0.172735,0.6052 6.74e-4,0.655 0.210806,0.061 z m 5.44831,-0.01 c 0.06114,-0.1837 0.176514,-0.4242 0.256392,-0.5345 0.192501,-0.2657 0.593944,-0.4393 0.593944,-0.2568 0,0.1052 0.156668,0.1734 0.286083,0.1245 0.133318,-0.05 0.217178,-0.1955 0.217178,-0.3759 0,-0.085 0.07462,-0.2187 0.203752,-0.3654 0.16718,-0.19 0.201057,-0.2627 0.188722,-0.4051 -0.01407,-0.1624 -0.03117,-0.1778 -0.266661,-0.2392 -0.335497,-0.087 -0.42777,-0.055 -0.42777,0.1486 0,0.137 -0.07421,0.2384 -0.476806,0.6509 -0.262238,0.2687 -0.497324,0.4886 -0.522409,0.4886 -0.06256,0 -0.375103,0.9941 -0.34072,1.0837 0.05545,0.1445 0.179746,0.01 0.288295,-0.3194 z m 3.885066,-0.072 c -0.08555,-0.09 -0.212787,-0.2782 -0.282738,-0.4183 -0.06995,-0.1401 -0.162923,-0.2845 -0.206604,-0.3207 -0.04367,-0.036 -0.07941,-0.1017 -0.07941,-0.1454 0,-0.056 -0.0159,-0.063 -0.05297,-0.026 -0.08974,0.09 0.164887,0.5804 0.435966,0.8402 0.276495,0.265 0.423872,0.3209 0.185758,0.071 z m 4.010922,0.034 c 0,-0.1077 -0.09318,-0.2735 -0.153711,-0.2735 -0.04439,0 -0.01867,0.2138 0.03782,0.3145 0.03785,0.067 0.115888,0.04 0.115888,-0.041 z m -18.4696755,-0.1754 c 0,-0.06 -0.30435,-0.1988 -0.43622,-0.1988 -0.06414,0 -0.07234,0.015 -0.03102,0.056 0.153745,0.1537 0.467236,0.2494 0.467236,0.1425 z m 8.8981805,-0.2798 c -0.01131,-0.1783 -0.03644,-0.2461 -0.09111,-0.2461 -0.07979,0 -0.0919,0.2049 -0.02731,0.4623 0.05325,0.2121 0.136034,0.061 0.118426,-0.2162 z m -13.5907744,0.1691 c -0.032068,-0.098 -0.2896879,-0.1119 -0.2896879,-0.016 0,0.055 0.047868,0.079 0.1551727,0.079 0.1016033,0 0.1480407,-0.022 0.1345152,-0.063 z m 13.3290994,-0.098 c -0.07013,-0.3507 -0.137976,-0.5432 -0.220795,-0.6266 -0.08223,-0.083 -0.08758,-0.079 -0.102799,0.077 -0.0088,0.09 0.02258,0.2872 0.0698,0.4373 0.06608,0.2101 0.108902,0.273 0.185908,0.273 0.08569,0 0.09543,-0.023 0.06789,-0.1608 z m -12.6625914,-0.037 c 0,-0.026 -0.050837,-0.083 -0.1129723,-0.1266 -0.1174964,-0.082 -0.1722819,-0.036 -0.1198222,0.1003 0.030903,0.081 0.2327945,0.1033 0.2327945,0.026 z m 8.9100104,-0.2347 c 0.12695,-0.2787 0.157639,-0.6492 0.05377,-0.6492 -0.04209,0 -0.09683,0.1058 -0.138041,0.2669 -0.03756,0.1467 -0.0911,0.3095 -0.118974,0.3616 -0.07311,0.1366 -0.06231,0.2522 0.02355,0.2522 0.04082,0 0.12169,-0.1042 0.179693,-0.2315 z m 9.690543,-0.3191 c -0.03387,-0.1504 -0.0917,-0.2835 -0.128513,-0.2957 -0.07036,-0.023 -0.07101,-0.029 0.05435,0.459 0.08583,0.334 0.152905,0.1864 0.07416,-0.1633 z m -15.9130635,0 c 0.201983,-0.1912 0.483886,-0.4067 0.62645,-0.4789 0.142566,-0.072 0.259211,-0.1405 0.259211,-0.1516 0,-0.011 0.01375,-0.056 0.03055,-0.1 0.04312,-0.1124 -0.11752,-0.1033 -0.443875,0.025 -0.335124,0.1317 -0.570517,0.3094 -0.673312,0.5082 -0.04401,0.085 -0.136006,0.2029 -0.204444,0.2618 -0.120142,0.1033 -0.126098,0.2828 -0.0094,0.2828 0.02616,0 0.212825,-0.1564 0.414808,-0.3475 z m -2.9391215,0.043 c 0,-0.1144 -0.022816,-0.148 -0.1006521,-0.148 -0.1112929,0 -0.130337,0.1021 -0.047801,0.2564 0.070569,0.1318 0.148453,0.075 0.148453,-0.1084 z m 1.1898015,-0.035 c -0.017158,-0.1038 -0.031443,-0.2517 -0.031746,-0.3287 -5.825e-4,-0.1474 -0.1223547,-0.2365 -0.2072585,-0.1515 -0.056147,0.056 0.028123,0.4995 0.114786,0.604 0.1021997,0.1231 0.1561468,0.069 0.1242199,-0.1238 z m 0.501163,-0.2669 c 0.02028,-0.402 -0.01797,-0.5509 -0.1414729,-0.5509 -0.096912,0 -0.101813,0.023 -0.07958,0.3691 0.013031,0.2031 0.04073,0.3968 0.061556,0.4305 0.077167,0.1248 0.1460678,0.018 0.1594969,-0.2487 z m 0.434346,0.2417 c 0.01231,-0.034 0.0204,-0.2441 0.01797,-0.4655 -0.004,-0.3676 -0.01318,-0.4026 -0.10507,-0.4026 -0.092355,0 -0.1018444,0.039 -0.1151222,0.4655 -0.013408,0.4314 -0.00735,0.4655 0.082687,0.4655 0.05344,0 0.107229,-0.028 0.11954,-0.063 z m 20.9143325,-0.1456 c 0.365101,-0.089 0.501886,-0.2444 0.21518,-0.2444 -0.177324,0 -0.608083,0.1769 -0.608083,0.2499 0,0.067 0.100502,0.066 0.392903,-0.01 z m -18.7741895,-0.106 c -0.03224,-0.098 -0.340019,-0.1125 -0.340019,-0.016 0,0.056 0.05034,0.079 0.180335,0.079 0.121731,0 0.173624,-0.021 0.159684,-0.063 z m 15.5630255,-0.1573 c 0,-0.1496 -0.06525,-0.3837 -0.106944,-0.3837 -0.05113,0 -0.06036,0.3695 -0.01049,0.4194 0.05617,0.056 0.117426,0.037 0.117426,-0.036 z m 0.558198,0 c -0.03192,-0.039 -0.09245,-0.2349 -0.134504,-0.4367 -0.0842,-0.4038 -0.102627,-0.4495 -0.181082,-0.4495 -0.07697,0 -0.0254,0.5372 0.07366,0.7674 0.05821,0.1353 0.112167,0.1887 0.190579,0.1887 0.08766,0 0.09785,-0.014 0.05135,-0.07 z m -13.7462805,-0.3201 c 0.02882,-0.1038 0.05254,-0.2948 0.05269,-0.4244 2.16e-4,-0.1857 0.02019,-0.2419 0.09428,-0.2655 0.0517,-0.016 0.1482,-0.1481 0.214445,-0.2927 0.226923,-0.4954 0.4612265,-0.8356 0.6207825,-0.9015 0.197716,-0.082 0.749567,-0.457 1.013427,-0.6894 0.113522,-0.1001 0.323156,-0.2611 0.465856,-0.358 0.164695,-0.1118 0.270221,-0.2237 0.288929,-0.3063 0.01621,-0.072 0.121061,-0.2188 0.233008,-0.3271 0.111946,-0.1083 0.257342,-0.2819 0.323102,-0.3857 0.08187,-0.1292 0.15626,-0.1887 0.235977,-0.1887 0.139291,0 0.285084,-0.1492 0.432133,-0.4421 0.197503,-0.3934 -0.0024,-0.4259 -0.412578,-0.067 -0.154569,0.1353 -0.413897,0.3482 -0.576283,0.4732 -0.162385,0.1249 -0.327793,0.2663 -0.367565,0.3143 -0.03978,0.048 -0.231248,0.2057 -0.42549,0.3507 -0.368302,0.2749 -1.6001185,1.5445 -1.8189995,1.8748 -0.04137,0.062 -0.141565,0.1478 -0.222652,0.1897 -0.288053,0.149 -0.475771,0.7642 -0.414455,1.3583 0.02296,0.2225 0.04617,0.276 0.119735,0.276 0.06257,0 0.107717,-0.059 0.143658,-0.1887 z m 14.4860655,-0.1996 c 0.01161,-0.281 -0.0032,-0.3731 -0.07098,-0.4409 -0.08065,-0.081 -0.08848,-0.081 -0.134166,0 -0.04688,0.084 -0.01087,0.6963 0.04638,0.789 0.07735,0.1252 0.145352,-0.024 0.158767,-0.3492 z m -14.9917715,-0.058 c -0.02641,-0.076 -0.145294,-0.2499 -0.264179,-0.3869 -0.118886,-0.1371 -0.308752,-0.3851 -0.421926,-0.5512 -0.113175,-0.1661 -0.609755,-0.7044 -1.10351,-1.1963 -1.069187,-1.0651 -1.2028,-1.2055 -1.236709,-1.2989 -0.01976,-0.055 -0.04061,-0.058 -0.08804,-0.013 -0.04919,0.046 -0.04653,0.088 0.01274,0.2013 0.04119,0.079 0.105951,0.2095 0.143923,0.2908 0.0693,0.1484 0.505107,0.6111 0.866435,0.9198 0.153338,0.131 0.173171,0.1653 0.09558,0.1653 -0.129854,0 -0.42109,-0.1 -0.515533,-0.1762 -0.111176,-0.09 -0.302016,-0.127 -0.301631,-0.058 5.44e-4,0.097 0.404142,0.5362 0.49427,0.5379 0.14503,0 0.674093,0.291 0.86124,0.4694 0.09851,0.094 0.235727,0.1849 0.304926,0.2025 0.118724,0.03 0.189489,0.1134 0.594416,0.7005 0.288909,0.4189 0.684409,0.5558 0.557993,0.1931 z m 11.8963175,0.023 c 0.107867,-0.014 0.276028,-0.093 0.38789,-0.1812 0.196591,-0.1557 1.140149,-0.5028 1.371166,-0.5044 0.06265,-4e-4 0.327783,-0.046 0.589194,-0.1011 0.48232,-0.1018 0.639262,-0.098 1.059656,0.026 0.124556,0.037 0.396317,0.08 0.603912,0.096 0.207596,0.017 0.590992,0.053 0.851996,0.081 0.592875,0.063 0.725146,0.033 0.613736,-0.1431 -0.0473,-0.075 -1.007145,-0.256 -1.367892,-0.2586 -0.317025,0 -0.855469,-0.1874 -0.819218,-0.2819 0.01709,-0.045 0.0991,-0.072 0.215541,-0.072 0.186939,0 0.188957,0 0.372725,-0.4151 0.178054,-0.4002 0.182381,-0.4235 0.119209,-0.6417 l -0.06556,-0.2265 -0.257497,-0.015 c -0.64309,-0.037 -1.96611,0.4462 -2.254587,0.8244 -0.07215,0.095 -0.160372,0.1719 -0.196038,0.1719 -0.03567,0 -0.09266,0.061 -0.126645,0.1357 -0.05521,0.1211 -0.04941,0.145 0.0545,0.2233 0.113128,0.085 0.113563,0.089 0.01597,0.1243 -0.49683,0.1809 -1.276296,0.618 -1.547199,0.8676 -0.213216,0.1964 -0.183766,0.3718 0.05627,0.3351 0.07285,-0.011 0.218139,-0.031 0.322865,-0.045 z m 2.112005,-1.2759 c -0.256033,-0.01 -0.465513,-0.036 -0.465513,-0.059 0,-0.024 0.104008,-0.1587 0.23113,-0.3001 0.1715,-0.1907 0.266801,-0.2571 0.369396,-0.2571 0.07605,0 0.315361,-0.045 0.531809,-0.1007 0.481708,-0.1232 0.679405,-0.1298 0.679405,-0.023 0,0.1214 -0.139383,0.3618 -0.335825,0.5792 -0.152196,0.1685 -0.206666,0.1967 -0.362015,0.1879 -0.100576,-0.01 -0.392349,-0.018 -0.648387,-0.027 z m -3.095808,1.2547 c 0.03417,-0.022 0.07553,-0.1065 0.0919,-0.1883 0.02537,-0.1268 0.0051,-0.1667 -0.137638,-0.2711 -0.09207,-0.067 -0.196988,-0.1635 -0.233153,-0.2137 -0.03617,-0.05 -0.126758,-0.091 -0.201304,-0.092 -0.175264,0 -0.21727,-0.033 -0.359245,-0.276 -0.228151,-0.3901 -0.330531,-0.5278 -0.392797,-0.5281 -0.133209,0 -0.02288,0.3875 0.174041,0.6124 0.04061,0.047 0.06602,0.1249 0.05647,0.1744 -0.01457,0.076 -0.05117,0.059 -0.227935,-0.1001 -0.115817,-0.1046 -0.259157,-0.2905 -0.318528,-0.4132 -0.140521,-0.2902 -0.199887,-0.3211 -0.199887,-0.104 0,0.2594 0.08172,0.4338 0.315355,0.6731 0.186714,0.1912 0.233749,0.2139 0.443605,0.2139 0.214193,0 0.253257,0.02 0.446294,0.2295 0.178651,0.1938 0.342974,0.3093 0.455507,0.3201 0.01384,0 0.05313,-0.015 0.08731,-0.037 z m -8.887497,-0.9382 c 0.221424,-0.3631 0.0214,-0.4347 -0.466014,-0.1667 -0.221001,0.1215 -0.29576,0.1904 -0.29576,0.2726 0,0.278 0.57655,0.1978 0.761774,-0.1059 z m -4.7244675,-0.4339 c -0.02357,-0.091 -0.07012,-0.1745 -0.10345,-0.1855 -0.097,-0.033 -0.07523,0.398 0.02747,0.5431 l 0.08807,0.1244 0.01538,-0.1583 c 0.0085,-0.087 -0.0039,-0.2327 -0.02747,-0.3237 z m 14.2616295,0.2698 c 0.04461,-0.1778 -0.0108,-0.8863 -0.07931,-1.0144 -0.03151,-0.059 -0.09299,-0.107 -0.136613,-0.107 -0.06568,0 -0.072,0.033 -0.03673,0.1887 0.02342,0.1038 0.04546,0.3813 0.04895,0.6165 0.0035,0.2353 0.0095,0.4441 0.01334,0.4639 0.01575,0.082 0.161108,-0.031 0.19037,-0.1477 z m 0.490625,0.1075 c 0.09136,-0.2381 -0.12146,-1.1031 -0.271408,-1.1031 -0.04601,0 -0.07072,0.039 -0.06328,0.1007 0.122317,1.0087 0.137203,1.082 0.219931,1.082 0.04632,0 0.09796,-0.036 0.114761,-0.08 z m -1.154307,-0.29 c 0.137279,-0.1004 0.08326,-0.4804 -0.09915,-0.6975 -0.207316,-0.2468 -0.303358,-0.3047 -0.370673,-0.2235 -0.04182,0.05 -0.01289,0.1155 0.120417,0.2712 0.150571,0.1759 0.175457,0.2413 0.175457,0.4612 0,0.2707 0.0248,0.2976 0.173948,0.1886 z m -0.805416,-0.2808 c 0.03449,-0.056 -0.131508,-0.3559 -0.350119,-0.6329 -0.08737,-0.1107 -0.289417,-0.3886 -0.448994,-0.6174 -0.317739,-0.4557 -0.477232,-0.584 -1.196108,-0.9624 -0.926945,-0.4878 -1.424564,-0.6235 -1.424564,-0.3885 0,0.068 0.05981,0.1127 0.212358,0.1578 0.116794,0.034 0.282722,0.1219 0.368725,0.1943 0.086,0.072 0.18294,0.1316 0.215417,0.1317 0.0543,0 0.251909,0.123 0.907598,0.5648 0.27853,0.1876 0.687473,0.597 0.878503,0.8793 0.07118,0.1053 0.156958,0.2193 0.190622,0.2533 0.03367,0.034 0.0689,0.08 0.07829,0.1007 0.0094,0.021 0.102788,0.1123 0.207553,0.2022 0.192076,0.165 0.307915,0.2025 0.360721,0.1171 z m -10.2680875,-0.4338 c 0.01666,-0.066 0.0079,-0.2176 -0.01939,-0.3361 -0.08374,-0.3629 -0.07087,-0.4056 0.07756,-0.2572 0.171709,0.1717 0.269486,0.095 0.186956,-0.1469 -0.0307,-0.09 -0.06987,-0.2654 -0.08706,-0.39 -0.0426,-0.3088 -0.0968,-0.3913 -0.200604,-0.3051 -0.05545,0.046 -0.08052,0.1586 -0.0833,0.3742 -0.0022,0.1696 -0.0154,0.2801 -0.02936,0.2454 -0.01396,-0.034 -0.07177,-0.063 -0.128468,-0.063 -0.09286,0 -0.09984,0.021 -0.07036,0.2139 0.018,0.1176 0.04703,0.3384 0.06452,0.4906 0.01749,0.1523 0.05465,0.2917 0.08258,0.3099 0.08255,0.054 0.174469,-0.01 0.206927,-0.1359 z m 12.6598625,-0.01 c -0.0018,-0.3195 -0.228166,-0.7245 -0.320927,-0.5744 -0.02572,0.042 0.126644,0.6002 0.192994,0.7075 0.06947,0.1124 0.129006,0.05 0.127933,-0.1331 z m -18.4787393,-0.2006 c 0.011858,-0.1996 -0.00279,-0.2592 -0.070111,-0.285 -0.1100341,-0.042 -0.1136549,-0.037 -0.1609227,0.2255 -0.056778,0.3154 -0.030574,0.4026 0.1059602,0.3524 0.089975,-0.033 0.1128193,-0.087 0.1250734,-0.2929 z m 19.0722863,-0.1266 c -0.05406,-0.4708 -0.438784,-1.2114 -0.542287,-1.044 -0.03101,0.05 0.277339,1.0476 0.369418,1.195 0.02162,0.034 0.07488,0.063 0.118367,0.063 0.06332,0 0.07417,-0.042 0.0545,-0.2139 z m -17.2092085,-0.1739 c -0.01779,-0.092 -0.1744564,-0.1356 -0.6576626,-0.1814 -0.2271753,-0.021 -0.2893754,-0.012 -0.2893754,0.043 0,0.1264 0.262064,0.2203 0.6201843,0.2224 0.2972087,0 0.3411677,-0.01 0.3268537,-0.084 z m 7.8704855,-0.2515 c 0.166557,-0.1626 0.246349,-0.3169 0.163911,-0.3169 -0.111727,0 -0.52665,0.3439 -0.52665,0.4365 0,0.1241 0.170872,0.068 0.362739,-0.1196 z m -9.5424567,0.078 c 0.065728,-0.1064 0.213952,-0.942 0.1860299,-1.0488 -0.080258,-0.3068 -0.3167823,0.1648 -0.3538559,0.7057 -0.023577,0.344 -0.016145,0.4012 0.052218,0.4012 0.043841,0 0.095864,-0.026 0.1156083,-0.058 z m 19.4664867,-0.1988 c -0.005,-0.1736 -0.289459,-0.6994 -0.37843,-0.6994 -0.115592,0 -0.08978,0.1712 0.07969,0.5283 0.191352,0.4032 0.30732,0.4696 0.298741,0.1711 z m -14.4451845,-0.3608 c 0.01868,-0.1786 0.09557,-0.445 0.181408,-0.6285 0.12265,-0.262 0.135931,-0.3234 0.07512,-0.3467 -0.135264,-0.052 -0.228675,0.029 -0.356789,0.3087 -0.148343,0.3241 -0.208359,0.7662 -0.125115,0.9218 0.09775,0.1826 0.190604,0.077 0.225377,-0.2553 z m 14.9977945,-0.3329 c -0.05407,-0.2979 -0.258367,-0.6599 -0.372402,-0.6599 -0.129866,0 -0.12607,0.051 0.03111,0.4215 0.07201,0.1695 0.151837,0.3615 0.177395,0.4266 0.0385,0.098 0.05938,0.1076 0.121684,0.056 0.05434,-0.045 0.06605,-0.1129 0.04221,-0.2442 z m -19.3043187,0.1579 c 0.04527,-0.091 0.036825,-1.1099 -0.00959,-1.1563 -0.014432,-0.015 -0.058979,-0.014 -0.09899,0 -0.1457895,0.056 -0.2459495,0.9308 -0.131128,1.1454 0.064875,0.1212 0.1818947,0.1257 0.2397041,0.01 z m 15.9109447,-0.05 c -0.005,-0.3076 -0.782145,-0.8953 -1.928232,-1.4581 -0.251341,-0.1234 -0.460004,-0.1363 -0.460004,-0.028 0,0.1035 0.583739,0.5635 0.981361,0.7733 0.207595,0.1095 0.486995,0.2837 0.620892,0.387 0.686792,0.5298 0.789999,0.5726 0.785983,0.3262 z m -12.2269855,-0.2436 c 0,-0.1238 0.03397,-0.3064 0.07549,-0.4057 0.07483,-0.1791 0.101798,-0.42 0.04702,-0.42 -0.17614,0 -0.341695,0.2777 -0.400897,0.6724 -0.02819,0.188 -0.01646,0.2405 0.07395,0.3309 0.144538,0.1446 0.204438,0.093 0.204438,-0.1776 z m -3.0803964,-0.4981 c 0.014316,-0.434 -0.03307,-0.6063 -0.1378405,-0.5013 -0.077666,0.078 -0.1189239,0.6858 -0.057314,0.8445 0.1026203,0.2644 0.1795719,0.1291 0.1951544,-0.3432 z m 19.1139459,0.408 c 0.04941,-0.1287 -0.0986,-0.6075 -0.193414,-0.6255 -0.06906,-0.013 -0.08807,0.018 -0.08807,0.1445 0,0.3699 0.19577,0.7044 0.281483,0.481 z m -2.597149,-0.056 c 0.05161,-0.062 0.0054,-0.1334 -0.276071,-0.4249 -0.518216,-0.5368 -1.617419,-1.3122 -1.860116,-1.3122 -0.142148,0 -0.07984,0.1361 0.124121,0.271 0.110889,0.073 0.400585,0.3199 0.643771,0.5477 0.243187,0.2279 0.538551,0.4822 0.656371,0.5653 0.117819,0.083 0.295493,0.2132 0.394835,0.2893 0.208578,0.1599 0.233213,0.1648 0.317089,0.064 z m -14.0082995,-0.2811 c 0.0061,-0.095 0.03537,-0.2364 0.06503,-0.3143 0.02966,-0.078 0.05393,-0.1871 0.05393,-0.2427 0,-0.166 -0.168841,-0.089 -0.236208,0.1082 -0.06646,0.1942 -0.08516,0.5671 -0.03115,0.6211 0.07145,0.072 0.137662,-0.01 0.148393,-0.1723 z m 17.1068565,0.049 c 0.0441,-0.071 0.04382,-0.5027 -5.43e-4,-0.6421 -0.01892,-0.059 -0.06683,-0.1082 -0.106482,-0.1082 -0.05602,0 -0.07209,0.082 -0.07209,0.3691 0,0.2029 0.0151,0.3841 0.03355,0.4026 0.04938,0.05 0.106922,0.041 0.145427,-0.021 z m -19.0716395,-0.4861 c -0.01159,-0.2422 -0.02308,-0.4573 -0.02551,-0.4781 -0.0024,-0.021 -0.03841,-0.038 -0.07992,-0.038 -0.07929,0 -0.101912,0.1621 -0.08426,0.6039 0.01142,0.2858 0.03658,0.3523 0.133359,0.3523 0.06538,0 0.07414,-0.069 0.05634,-0.4404 z m 1.294246,-0.5812 c -0.04513,-0.074 -0.165276,0.074 -0.217278,0.2676 -0.05411,0.2009 3.22e-4,0.4398 0.116639,0.5123 0.04326,0.027 0.06881,-0.07 0.09254,-0.3513 0.01803,-0.2136 0.02167,-0.4065 0.0081,-0.4286 z m 7.7165465,0.7443 c 0.04112,-0.1072 -0.08389,-0.2544 -0.140392,-0.1653 -0.06769,0.1067 -0.04865,0.2414 0.03411,0.2414 0.04239,0 0.09022,-0.034 0.106283,-0.076 z m -2.961846,-0.1578 c 0.296442,-0.101 0.686157,-0.2213 0.866032,-0.2674 0.209367,-0.054 0.332485,-0.1121 0.342169,-0.1623 0.03739,-0.1942 -0.367115,-0.1365 -1.373781,0.1958 -0.7274765,0.2402 -0.8487875,0.2967 -0.8016935,0.3729 0.05796,0.094 0.4488115,0.037 0.9672735,-0.139 z m 13.54828,-0.042 c 0,-0.123 -0.02276,-0.1761 -0.07549,-0.1761 -0.08759,0 -0.09816,0.1153 -0.02339,0.255 0.07497,0.14 0.09889,0.121 0.09889,-0.079 z m -18.9520155,-0.012 c -0.06264,-0.215 -0.03809,-0.4374 0.07705,-0.6977 0.07373,-0.1666 0.08965,-0.2546 0.05275,-0.2915 -0.15047,-0.1504 -0.402149,0.2659 -0.402266,0.6654 -1.07e-4,0.3169 0.06542,0.4622 0.208453,0.4622 0.09005,0 0.09882,-0.019 0.06402,-0.1384 z m 16.5866895,0.015 c 0,-0.04 -0.134477,-0.1649 -0.298837,-0.2765 -0.164362,-0.1117 -0.313466,-0.2267 -0.331347,-0.2556 -0.01789,-0.029 -0.119693,-0.1076 -0.22624,-0.1749 -0.106551,-0.067 -0.312499,-0.2278 -0.457669,-0.3567 -0.145165,-0.1289 -0.378801,-0.2879 -0.519193,-0.3532 -0.296025,-0.1379 -0.582366,-0.1597 -0.582366,-0.044 0,0.042 0.03963,0.076 0.08807,0.077 0.170932,0 0.493642,0.1898 0.743935,0.4326 0.512333,0.497 1.008879,0.911 1.155874,0.9637 0.225627,0.081 0.427774,0.075 0.427774,-0.012 z m 0.7139,-0.7452 c -0.106675,-0.181 -0.569803,-0.5782 -0.855607,-0.7338 -0.433948,-0.2364 -0.298961,0.028 0.254062,0.4983 0.201159,0.1709 0.388388,0.3385 0.416066,0.3724 0.07351,0.09 0.196071,0.1213 0.235805,0.06 0.01898,-0.03 -0.0037,-0.1179 -0.05032,-0.197 z m -12.8173255,-0.013 c 0.1107185,-0.04 0.2662055,-0.073 0.3455285,-0.073 0.07932,-4e-4 0.249174,-0.034 0.377446,-0.076 0.128272,-0.041 0.333716,-0.1049 0.456544,-0.1415 0.315814,-0.094 0.324263,-0.1862 0.01711,-0.1862 -0.260918,0 -0.721765,0.1318 -1.1602605,0.3318 -0.146073,0.067 -0.287616,0.1212 -0.314538,0.1212 -0.02692,0 -0.04895,0.023 -0.04895,0.05 0,0.067 0.08561,0.061 0.32712,-0.026 z m 13.9372975,-0.1698 c 0.03859,-0.062 -0.966626,-1.0749 -1.028955,-1.0364 -0.02751,0.017 -0.05002,0.053 -0.05002,0.079 0,0.091 0.405319,0.6415 0.605158,0.822 0.191416,0.1729 0.411767,0.236 0.473822,0.1356 z m -14.9542025,-0.3247 c 0.254825,-0.093 0.610522,-0.2107 0.790437,-0.2616 0.179916,-0.051 0.4177075,-0.1332 0.5284255,-0.1824 0.110717,-0.049 0.257921,-0.09 0.327119,-0.091 0.0692,0 0.159785,-0.026 0.201304,-0.055 0.152985,-0.1085 -0.685191,-0.01 -1.2270725,0.1518 -0.689148,0.1991 -1.403931,0.4739 -1.429096,0.5494 -0.03723,0.1117 0.341311,0.06 0.808883,-0.1104 z m -0.492878,-0.6635 c 0.221435,-0.092 0.477741,-0.1825 0.569569,-0.2008 0.152347,-0.03 0.260075,-0.1419 0.197456,-0.2045 -0.06754,-0.068 -1.505177,0.3464 -1.600039,0.4607 -0.031,0.037 -0.04076,0.093 -0.0217,0.124 0.05212,0.084 0.392894,0.013 0.854711,-0.1794 z m -0.327651,-0.7523 c 0.03416,-0.041 0.04975,-0.1071 0.03463,-0.1465 -0.02239,-0.058 -0.06776,-0.062 -0.24468,-0.018 -0.40163,0.098 -0.442569,0.2398 -0.06941,0.2398 0.130965,0 0.242022,-0.029 0.279454,-0.075 z m 0.644415,-0.155 c 0.163646,-0.1147 0.0856,-0.1896 -0.157028,-0.1508 -0.22143,0.036 -0.351318,0.1136 -0.307189,0.185 0.045,0.073 0.342689,0.051 0.464217,-0.034 z"
       style="opacity:0.5;fill:#000000" />
  </g>
  <g
     inkscape:groupmode="layer"
     id="layer3"
     inkscape:label="Layer 2">
    <ellipse
       style="opacity:1"
       id="path5614"
       cx="16"
       cy="24"
       rx="8"
       ry="5.1300349" />
    <path
       style="opacity:1"
       d="M 16 8.8691406 A 8 9.1389866 0 0 0 8 18.009766 A 8 9.1389866 0 0 0 16 27.148438 A 8 9.1389866 0 0 0 24 18.009766 A 8 9.1389866 0 0 0 16 8.8691406 z M 12.8125 13.740234 A 2.367727 3.0583041 0 0 1 15.179688 16.798828 A 2.367727 3.0583041 0 0 1 12.8125 19.857422 A 2.367727 3.0583041 0 0 1 10.443359 16.798828 A 2.367727 3.0583041 0 0 1 12.8125 13.740234 z M 19.189453 13.740234 A 2.367727 3.0583041 0 0 1 21.556641 16.798828 A 2.367727 3.0583041 0 0 1 19.189453 19.857422 A 2.367727 3.0583041 0 0 1 16.820312 16.798828 A 2.367727 3.0583041 0 0 1 19.189453 13.740234 z "
       id="path5614-5" />
    <ellipse
       style="opacity:1"
       id="path5614-9"
       cx="24.372204"
       cy="16.780333"
       rx="1.8475868"
       ry="3.1838634" />
    <ellipse
       style="opacity:1"
       id="path5614-9-1"
       cx="7.6277966"
       cy="16.780333"
       rx="1.8475868"
       ry="3.1838634" />
    <ellipse
       style="opacity:1"
       id="path5614-9-6"
       cx="19.125561"
       cy="18.188461"
       rx="0.92379338"
       ry="1.5919317" />
    <ellipse
       style="opacity:1"
       id="path5614-9-6-4"
       cx="12.87444"
       cy="18.188461"
       rx="0.92379338"
       ry="1.5919317" />
    <path
       style="fill:none;fill-rule:evenodd;stroke:#000000;stroke-width:1px;stroke-linecap:butt;stroke-linejoin:miter;stroke-opacity:1"
       d="m 19.461715,11.031571 3.641224,-3.2645455 5.775735,0.6277973 -5.524616,1.7578322 -1.381154,3.138986 z"
       id="path5737"
       inkscape:connector-curvature="0" />
  </g>
</svg>
